<?xml version="1.0" standalone="no"?>
<!DOCTYPE svg PUBLIC "-//W3C//DTD SVG 20010904//EN"
 "http://www.w3.org/TR/2001/REC-SVG-20010904/DTD/svg10.dtd">
<svg version="1.0" xmlns="http://www.w3.org/2000/svg"
 width="267.000000pt" height="392.000000pt" viewBox="0 0 267.000000 392.000000"
 preserveAspectRatio="xMidYMid meet">

<g transform="translate(0.000000,392.000000) scale(0.100000,-0.100000)"
fill="#000000" stroke="none">
<path d="M99 3903 c-15 -10 -39 -34 -55 -53 -16 -19 -32 -36 -36 -38 -5 -2 -8
-830 -8 -1839 l0 -1836 53 -53 c91 -91 -2 -85 1308 -82 l1144 3 47 23 c27 13
64 42 83 65 l35 41 0 1830 0 1830 -21 31 c-12 17 -40 44 -63 60 l-41 30 -1210
3 c-1138 2 -1212 1 -1236 -15z m2381 -148 c16 -8 34 -24 40 -34 7 -13 10 -584
10 -1756 l0 -1737 -29 -29 -29 -29 -1132 0 c-757 0 -1138 3 -1151 10 -52 28
-49 -67 -49 1793 l0 1724 21 27 c12 15 31 32 43 36 11 5 522 9 1134 9 974 1
1117 -1 1142 -14z"/>
<path d="M455 3566 c-48 -21 -96 -67 -116 -111 -17 -37 -19 -76 -19 -513 0
-449 1 -475 19 -511 26 -49 81 -97 128 -111 27 -8 296 -10 894 -8 l855 3 42
27 c22 15 54 49 69 75 l28 48 3 445 c2 245 0 464 -3 486 -9 64 -57 128 -117
158 l-52 26 -850 0 c-679 -1 -857 -3 -881 -14z m1705 -159 l25 -13 3 -444 c2
-444 2 -445 -19 -462 -20 -17 -75 -18 -835 -18 -801 0 -814 0 -834 20 -19 19
-20 33 -20 454 l0 435 26 20 c27 21 32 21 828 21 626 0 806 -3 826 -13z"/>
<path d="M642 3315 c-18 -8 -37 -26 -42 -41 -7 -17 -10 -144 -8 -345 4 -396
-12 -364 181 -364 126 0 134 1 179 28 31 18 57 44 75 75 24 41 28 57 28 127 0
58 -5 89 -19 114 -17 33 -17 35 1 75 24 53 24 178 1 222 -27 51 -79 94 -132
109 -64 19 -220 19 -264 0z m236 -167 c7 -7 12 -30 12 -53 0 -54 -13 -65 -77
-65 l-53 0 0 65 0 65 53 0 c29 0 58 -5 65 -12z m0 -300 c7 -7 12 -30 12 -53 0
-54 -13 -65 -77 -65 l-53 0 0 65 0 65 53 0 c29 0 58 -5 65 -12z"/>
<path d="M1174 3316 c-17 -8 -34 -21 -38 -31 -3 -9 -6 -176 -6 -371 l0 -354
80 0 80 0 0 210 c0 116 3 210 8 210 4 0 30 -32 57 -70 89 -122 131 -121 227 5
l53 70 3 -212 2 -213 80 0 80 0 0 356 c0 213 -4 363 -10 374 -15 28 -67 43
-99 27 -14 -7 -69 -69 -121 -138 -52 -69 -99 -125 -105 -125 -5 0 -51 54 -101
120 -50 67 -97 126 -105 132 -25 20 -53 23 -85 10z"/>
<path d="M1897 3323 c-4 -3 -7 -177 -7 -385 l0 -378 85 0 85 0 0 385 0 385
-78 0 c-43 0 -82 -3 -85 -7z"/>
<path d="M420 2213 c-8 -3 -25 -15 -37 -26 -23 -20 -23 -24 -23 -267 l0 -247
26 -24 26 -24 245 0 245 0 24 28 c24 28 24 29 24 267 0 238 0 239 -24 267
l-24 28 -234 2 c-128 1 -240 -1 -248 -4z m360 -293 l0 -131 -127 3 -128 3 -3
114 c-1 63 0 121 2 128 4 10 37 13 131 13 l125 0 0 -130z"/>
<path d="M1094 2210 c-51 -20 -54 -37 -54 -292 0 -236 0 -237 24 -265 l24 -28
219 -3 c240 -4 275 0 304 29 18 18 19 35 19 263 0 134 -3 252 -6 261 -15 39
-53 45 -286 44 -123 0 -233 -4 -244 -9z m376 -290 l0 -130 -130 0 -130 0 0
130 0 130 130 0 130 0 0 -130z"/>
<path d="M1770 2207 c-47 -24 -50 -44 -48 -299 3 -232 4 -238 26 -260 22 -23
26 -23 272 -23 246 0 250 0 272 23 23 22 23 26 23 272 0 246 0 250 -23 272
-22 22 -28 23 -260 26 -177 2 -243 -1 -262 -11z m380 -287 l0 -130 -130 0
-130 0 0 130 0 130 130 0 130 0 0 -130z"/>
<path d="M381 1504 c-20 -25 -21 -39 -21 -269 0 -224 1 -245 19 -266 19 -24
21 -24 252 -27 128 -2 244 0 256 3 13 3 32 14 43 25 19 19 20 34 20 264 0 231
-1 245 -21 270 l-20 26 -254 0 -254 0 -20 -26z m399 -264 l0 -130 -130 0 -130
0 0 123 c0 68 3 127 7 130 3 4 62 7 130 7 l123 0 0 -130z"/>
<path d="M1065 1505 l-25 -24 0 -241 0 -242 29 -29 29 -29 242 0 241 0 24 25
25 24 0 249 c0 247 0 249 -23 270 -23 21 -30 22 -271 22 l-247 0 -24 -25z
m403 -267 l3 -128 -131 0 -130 0 0 130 0 131 128 -3 127 -3 3 -127z"/>
<path d="M1750 1510 c-11 -11 -22 -30 -25 -43 -3 -12 -5 -125 -3 -251 l3 -228
28 -24 c28 -24 29 -24 267 -24 238 0 239 0 267 24 l28 24 3 228 c2 126 0 239
-3 251 -3 13 -14 32 -25 43 -19 19 -34 20 -270 20 -236 0 -251 -1 -270 -20z
m400 -270 l0 -130 -130 0 -130 0 0 130 0 130 130 0 130 0 0 -130z"/>
<path d="M385 825 l-25 -24 0 -246 0 -246 25 -24 24 -25 246 0 246 0 24 25 25
24 0 246 0 246 -25 24 -24 25 -246 0 -246 0 -24 -25z m395 -275 l0 -131 -127
3 -128 3 -3 128 -3 127 131 0 130 0 0 -130z"/>
<path d="M1070 830 c-11 -11 -22 -30 -25 -43 -3 -12 -5 -128 -3 -256 3 -231 3
-233 27 -252 21 -18 42 -19 266 -19 230 0 244 1 269 21 l26 20 0 254 0 254
-26 20 c-25 20 -39 21 -270 21 -230 0 -245 -1 -264 -20z m398 -277 l-3 -128
-127 -3 -128 -3 0 131 0 130 130 0 131 0 -3 -127z"/>
<path d="M1753 826 l-28 -24 0 -245 0 -245 24 -26 24 -26 247 0 247 0 24 26
24 26 0 245 0 245 -28 24 c-28 24 -29 24 -267 24 -238 0 -239 0 -267 -24z
m395 -273 l-3 -128 -125 0 -125 0 -3 128 -3 127 131 0 131 0 -3 -127z"/>
</g>
</svg>
