<?xml version="1.0" standalone="no"?>
<!DOCTYPE svg PUBLIC "-//W3C//DTD SVG 20010904//EN"
 "http://www.w3.org/TR/2001/REC-SVG-20010904/DTD/svg10.dtd">
<svg version="1.0" xmlns="http://www.w3.org/2000/svg"
 width="200.000000pt" height="200.000000pt" viewBox="0 0 200.000000 200.000000"
 preserveAspectRatio="xMidYMid meet">

<g transform="translate(0.000000,200.000000) scale(0.100000,-0.100000)"
fill="#000000" stroke="none">
<path d="M510 1230 l0 -440 -75 0 -75 0 0 -230 0 -230 640 0 640 0 0 230 0
230 -75 0 -75 0 0 355 c0 334 -1 358 -20 394 -28 57 -93 108 -152 120 -29 7
-199 11 -428 11 l-380 0 0 -440z m837 371 c26 -12 52 -35 70 -62 l28 -42 3
-354 3 -353 -451 0 -450 0 0 415 0 415 378 0 c349 0 380 -2 419 -19z m253
-1041 l0 -180 -600 0 -600 0 0 180 0 180 600 0 600 0 0 -180z"/>
<path d="M672 1358 l3 -23 325 0 325 0 3 23 3 22 -331 0 -331 0 3 -22z"/>
<path d="M670 1195 l0 -25 330 0 330 0 0 25 0 25 -330 0 -330 0 0 -25z"/>
<path d="M672 1028 l3 -23 325 0 325 0 3 23 3 22 -331 0 -331 0 3 -22z"/>
<path d="M722 679 c-92 -27 -96 -215 -5 -235 15 -3 34 -8 42 -10 24 -8 90 16
106 39 22 31 19 44 -14 55 -26 9 -32 8 -46 -14 -19 -30 -49 -31 -69 -2 -44 62
17 154 68 103 16 -17 44 -19 65 -6 22 14 -15 59 -58 71 -42 11 -45 11 -89 -1z"/>
<path d="M920 560 l0 -120 40 0 40 0 0 45 0 45 39 0 c74 0 114 69 71 123 -20
26 -26 27 -106 27 l-84 0 0 -120z m125 45 c0 -13 -8 -21 -22 -23 -19 -3 -23 1
-23 23 0 22 4 26 23 23 14 -2 22 -10 22 -23z"/>
<path d="M1170 560 l0 -120 35 0 35 0 0 50 0 50 51 0 c47 0 50 2 47 23 -3 19
-10 22 -50 25 -40 3 -48 6 -48 23 0 16 7 19 55 19 52 0 55 1 55 25 0 25 -1 25
-90 25 l-90 0 0 -120z"/>
</g>
</svg>
