<?xml version="1.0" standalone="no"?>
<!DOCTYPE svg PUBLIC "-//W3C//DTD SVG 20010904//EN"
 "http://www.w3.org/TR/2001/REC-SVG-20010904/DTD/svg10.dtd">
<svg version="1.0" xmlns="http://www.w3.org/2000/svg"
 width="1440.000000pt" height="1432.000000pt" viewBox="0 0 1440.000000 1432.000000"
 preserveAspectRatio="xMidYMid meet">
<metadata>
Created by potrace 1.16, written by Peter Selinger 2001-2019
</metadata>
<g transform="translate(0.000000,1432.000000) scale(0.100000,-0.100000)"
fill="#000000" stroke="none">
<path d="M7797 13150 c-9 -11 -24 -20 -32 -20 -17 0 -20 -25 -5 -35 6 -3 10
-17 10 -30 0 -30 -53 -94 -64 -77 -4 6 2 20 12 30 10 10 16 25 13 33 -4 12 -2
12 12 0 15 -12 17 -11 17 12 0 14 -7 28 -16 31 -9 4 -18 5 -19 4 -1 -2 -21
-33 -45 -70 -25 -38 -48 -68 -52 -68 -4 0 -8 -13 -8 -29 0 -22 11 -37 44 -65
24 -20 51 -36 58 -36 13 0 35 23 136 140 38 42 47 85 27 116 -8 13 -15 30 -15
39 0 18 -26 20 -33 3 -3 -7 -6 -1 -6 15 -1 32 -10 34 -34 7z"/>
<path d="M7947 12887 c-66 -63 -83 -92 -66 -113 6 -8 18 -14 25 -14 8 0 14 -4
14 -8 0 -5 -22 -8 -48 -8 -43 0 -55 -5 -102 -45 -29 -24 -67 -58 -84 -74 -47
-47 -223 -176 -293 -215 -34 -20 -74 -47 -90 -60 -15 -14 -41 -33 -56 -43 -41
-26 -29 -30 39 -12 72 18 107 19 101 3 -2 -7 -16 -13 -32 -13 -18 0 -33 -8
-43 -24 -14 -20 -14 -23 -2 -19 8 3 27 -2 43 -10 20 -12 27 -24 27 -46 0 -16
8 -34 17 -41 17 -12 17 -14 1 -32 -16 -17 -15 -18 15 -20 72 -4 171 -13 173
-16 2 -2 -23 -16 -56 -33 -33 -16 -60 -31 -60 -34 0 -3 14 -5 30 -6 18 -1 40
-11 51 -23 11 -12 32 -21 49 -21 21 0 33 -8 47 -30 23 -40 54 -44 209 -30
l128 11 48 41 c26 22 48 44 48 48 0 5 -13 11 -29 15 -36 8 -51 49 -26 74 14
15 16 14 21 -6 9 -35 64 -41 64 -7 0 8 7 14 15 14 8 0 25 12 38 27 12 14 41
48 65 75 35 41 40 52 32 68 -10 18 -7 20 23 20 22 0 47 10 73 30 21 16 44 30
50 30 6 0 19 9 29 20 18 20 18 21 -4 43 -15 14 -25 18 -28 11 -3 -8 -15 -9
-40 -3 -23 5 -44 4 -56 -3 -15 -7 -22 -7 -28 3 -4 8 -14 14 -21 14 -7 1 -26 6
-41 13 -26 11 -27 15 -21 49 3 21 12 50 19 66 12 24 12 27 -4 27 -9 0 -23 -9
-31 -20 -17 -24 -36 -26 -56 -6 -19 19 -18 45 2 67 15 17 14 20 -17 49 -39 35
-41 35 -75 14 -23 -16 -26 -16 -39 2 -8 10 -15 22 -15 27 0 4 -9 7 -20 7 -11
0 -20 5 -20 11 0 7 16 10 43 8 31 -3 47 1 61 15 19 19 19 19 0 14 -10 -3 -25
-7 -32 -9 -8 -2 -23 9 -35 24 l-21 28 43 37 c35 30 42 42 37 59 -12 38 -33 33
-89 -20z"/>
<path d="M4860 12892 c-38 -43 -51 -72 -40 -91 15 -28 13 -71 -4 -71 -18 0
-26 -32 -14 -54 12 -22 3 -46 -17 -46 -9 0 -19 16 -26 44 -13 53 -39 80 -67
72 -15 -5 -20 -16 -20 -44 -1 -88 -11 -146 -26 -154 -20 -11 -21 -29 -2 -22 8
3 25 -1 38 -9 13 -8 58 -30 101 -47 l78 -32 60 22 c34 13 69 34 82 50 12 16
38 35 57 43 54 22 140 98 140 124 0 12 -5 25 -10 28 -8 5 -8 11 0 20 8 10 7
26 -4 62 -9 31 -15 39 -15 24 -1 -20 -3 -22 -17 -10 -13 11 -15 9 -13 -12 4
-42 -1 -59 -16 -59 -8 0 -15 6 -15 14 0 7 -7 19 -15 26 -8 7 -15 23 -15 35 0
12 -6 27 -13 33 -24 20 -107 -18 -107 -49 0 -9 -12 -21 -26 -28 -25 -11 -26
-10 -22 14 3 14 1 28 -3 31 -17 10 -9 31 16 42 15 7 25 20 25 32 0 31 -30 22
-43 -12 -11 -31 -30 -21 -23 12 6 33 -1 37 -24 12z"/>
<path d="M5531 12866 c-12 -7 -34 -11 -47 -8 -16 3 -24 0 -24 -9 0 -13 -11
-28 -73 -100 -12 -14 -34 -33 -49 -43 -31 -20 -36 -36 -12 -36 15 0 65 31 92
57 7 7 18 13 23 13 5 0 23 10 38 21 16 12 34 18 40 15 6 -4 11 0 11 8 0 9 7
16 16 16 12 0 14 7 9 30 -5 25 -4 29 9 24 11 -4 16 -1 16 10 0 19 -17 20 -49
2z"/>
<path d="M7357 12799 c-4 -15 -11 -20 -22 -16 -9 4 -24 -2 -36 -14 -11 -11
-33 -22 -49 -26 -17 -3 -30 -9 -30 -14 0 -5 -7 -9 -16 -9 -8 0 -32 -11 -52
-25 -20 -14 -41 -25 -47 -25 -11 0 -45 -35 -45 -48 0 -4 -28 -25 -61 -47 -33
-22 -71 -52 -85 -66 l-25 -26 28 -1 c16 0 39 8 52 17 19 15 31 17 58 9 28 -8
44 -4 103 24 47 22 68 37 65 47 -5 11 -3 11 9 1 29 -23 98 25 88 63 -1 4 3 7
8 7 6 0 29 14 52 31 35 25 49 29 77 24 28 -5 33 -4 27 10 -5 13 -2 15 14 10
11 -4 20 -2 20 4 0 6 -10 11 -21 11 -16 0 -20 5 -16 19 6 24 -34 61 -67 61
-16 0 -26 -7 -29 -21z"/>
<path d="M5632 12798 c-16 -16 -15 -28 3 -28 9 0 15 -10 16 -22 0 -13 2 -34 3
-48 2 -15 -6 -34 -18 -47 -21 -23 -42 -32 -31 -13 12 20 -12 9 -43 -18 -18
-16 -32 -35 -32 -42 0 -7 -7 -18 -16 -25 -10 -6 -18 -25 -20 -40 -2 -16 -10
-35 -18 -44 -14 -13 -17 -12 -27 17 -9 27 -15 32 -33 26 -24 -7 -46 -23 -44
-32 0 -4 0 -13 -1 -19 -2 -21 -41 24 -41 47 0 11 -9 29 -21 41 -13 13 -18 27
-14 39 3 11 0 31 -7 45 l-14 26 -24 -22 c-14 -11 -38 -27 -53 -35 -15 -8 -32
-25 -38 -37 -22 -46 -49 -92 -54 -89 -14 7 -29 -1 -56 -30 -16 -18 -29 -35
-29 -39 0 -19 70 -31 203 -36 107 -5 145 -9 137 -17 -17 -17 -264 -10 -320 9
-52 17 -110 16 -110 -2 0 -7 -7 -13 -15 -13 -8 0 -15 -4 -15 -9 0 -6 -24 -26
-53 -45 -30 -20 -58 -46 -64 -58 -6 -13 -23 -29 -39 -37 -122 -58 -154 -77
-154 -92 0 -12 30 -26 73 -34 30 -6 37 -4 37 9 0 18 -15 22 -25 6 -8 -13 -35
-1 -35 16 0 24 48 36 85 23 34 -13 65 -7 65 11 0 5 -15 10 -32 10 l-32 0 24
17 c14 9 31 23 38 30 16 16 30 16 71 2 22 -8 30 -16 26 -26 -4 -12 1 -14 21
-10 20 3 28 -1 37 -20 9 -20 7 -27 -11 -45 -17 -17 -24 -19 -36 -9 -10 8 -16
9 -21 1 -3 -5 -15 -10 -25 -10 -11 0 -38 -10 -60 -21 -33 -18 -50 -20 -93 -15
-29 4 -62 14 -74 21 -13 9 -24 11 -28 5 -5 -9 -44 -7 -95 5 -14 3 -19 2 -12
-1 10 -5 10 -10 -3 -24 -14 -15 -14 -21 -3 -39 7 -12 18 -21 24 -21 6 0 19 -9
30 -21 10 -11 32 -27 49 -34 16 -7 24 -14 17 -14 -26 -2 0 -21 28 -21 16 0 32
-5 35 -10 4 -6 10 -8 15 -5 18 11 39 -7 37 -33 -2 -25 0 -27 36 -24 46 4 49
-10 5 -23 -33 -10 -33 -10 -31 -70 1 -33 -1 -53 -3 -44 -3 8 -25 28 -49 43
-24 16 -51 39 -59 51 -11 17 -96 71 -96 61 0 -1 11 -26 25 -54 33 -67 58 -92
95 -92 21 0 30 -5 30 -16 0 -10 -6 -14 -15 -10 -23 8 -18 -11 12 -44 23 -26
31 -29 60 -24 22 4 33 2 33 -5 0 -7 -6 -11 -12 -10 -32 4 -39 -1 -32 -23 9
-30 6 -29 42 -19 39 11 39 9 7 -23 -27 -27 -33 -56 -11 -56 7 0 19 -7 26 -15
7 -8 25 -15 40 -15 38 0 58 -49 34 -85 -15 -23 -5 -43 15 -31 4 3 18 -5 30
-18 l22 -24 -21 -15 -22 -15 23 -26 c13 -15 29 -24 36 -22 7 3 15 1 18 -3 2
-5 -5 -11 -16 -14 -31 -8 -14 -26 32 -33 35 -6 39 -10 39 -35 0 -22 5 -29 19
-29 22 0 51 -35 51 -61 0 -9 7 -22 15 -29 18 -15 20 -40 3 -40 -23 0 -109 -48
-98 -55 5 -3 10 -4 10 0 0 3 9 1 19 -5 13 -7 22 -7 26 0 3 5 14 10 23 10 20 0
5 -16 -30 -34 -30 -15 -35 -42 -8 -49 31 -8 25 -43 -12 -61 -38 -19 -48 -20
-48 -3 0 6 -25 34 -55 60 -31 27 -52 53 -48 59 4 8 0 9 -11 5 -10 -4 -19 -7
-20 -7 -1 0 -1 -22 0 -50 2 -36 -1 -50 -11 -50 -7 0 -16 7 -19 16 -3 8 -11 12
-17 9 -6 -4 -8 -13 -5 -21 3 -8 -1 -14 -8 -14 -8 0 -16 -7 -19 -14 -5 -13 -10
-13 -36 0 -17 8 -33 20 -36 25 -4 5 -11 7 -16 3 -6 -4 -6 -11 2 -20 6 -7 8
-22 4 -31 -6 -16 -8 -16 -26 6 l-20 25 -35 -37 c-20 -20 -41 -37 -48 -37 -18
0 -98 -80 -93 -94 2 -6 9 -11 14 -11 6 0 15 -3 19 -7 4 -5 2 -8 -5 -8 -7 0
-10 -4 -6 -9 3 -5 1 -12 -4 -15 -5 -4 -12 -2 -16 4 -8 13 -55 13 -55 0 0 -6
-11 -22 -25 -36 -14 -14 -23 -30 -20 -35 4 -5 0 -9 -7 -9 -6 0 -32 -21 -56
-47 -55 -61 -33 -72 26 -13 46 45 67 52 56 18 -9 -32 -43 -98 -67 -131 -15
-23 -18 -38 -13 -74 5 -36 3 -44 -8 -40 -10 4 -21 -10 -35 -43 -22 -51 -40
-72 -37 -43 0 9 -4 18 -10 20 -12 4 -34 -38 -34 -65 0 -10 -8 -33 -18 -52 -17
-32 -36 -120 -26 -120 2 0 31 21 64 47 33 25 62 44 65 41 7 -6 -63 -98 -74
-98 -5 0 -12 -16 -16 -36 -3 -20 -9 -33 -12 -30 -4 3 -12 -3 -19 -13 -11 -15
-11 -37 -3 -107 5 -49 12 -97 15 -107 9 -28 38 -16 44 17 6 37 21 42 50 18
l24 -19 -17 -62 c-22 -78 -22 -80 8 -91 34 -13 31 -30 -5 -30 -27 0 -30 -3
-31 -32 -1 -44 -5 -69 -14 -91 -6 -14 -1 -18 24 -23 17 -4 31 -12 31 -18 0
-28 -22 -86 -31 -81 -15 10 -60 -102 -53 -130 6 -23 6 -23 25 -4 13 13 33 19
62 19 52 0 108 27 124 60 6 14 27 33 45 44 18 10 76 65 128 122 52 57 122 132
155 166 65 68 115 129 129 159 5 11 13 19 19 19 5 0 7 7 4 15 -6 13 18 46 78
112 11 13 30 35 43 50 33 40 59 71 122 143 147 169 214 237 285 290 28 20 56
44 64 53 7 10 19 17 25 17 6 0 22 9 36 20 14 11 35 20 47 20 12 0 24 4 27 9 4
5 24 12 46 16 46 8 70 -5 70 -37 0 -12 9 -22 21 -25 17 -5 20 -12 17 -39 -3
-28 0 -34 19 -39 32 -8 200 13 243 30 19 8 69 17 110 20 41 4 76 7 77 9 9 9
-13 46 -28 46 -14 0 -19 7 -19 26 0 19 -4 25 -15 20 -9 -3 -15 0 -15 9 0 20
20 19 35 -1 6 -9 32 -18 61 -21 27 -3 55 -10 62 -16 7 -5 27 -17 44 -26 18 -9
33 -21 35 -28 5 -14 -57 -35 -103 -35 -58 0 -40 -25 38 -51 26 -9 63 -27 81
-41 19 -14 43 -26 55 -26 11 0 27 -6 34 -14 8 -7 24 -16 36 -20 12 -4 43 -29
70 -55 39 -39 160 -111 185 -111 3 0 26 -13 50 -30 25 -16 48 -30 52 -30 4 0
18 -9 31 -19 15 -12 36 -18 54 -16 24 3 36 -5 77 -49 27 -29 60 -56 74 -59 56
-13 132 -46 157 -67 15 -12 41 -28 59 -36 17 -7 41 -27 53 -44 16 -22 27 -29
43 -25 32 7 50 -13 72 -80 26 -78 41 -94 49 -54 5 27 8 29 28 18 37 -19 58
-41 58 -61 0 -21 10 -36 55 -79 19 -19 24 -29 15 -29 -17 0 39 -49 56 -50 13
0 24 -23 24 -50 0 -10 6 -20 14 -23 18 -7 12 -52 -9 -73 -11 -12 -14 -25 -10
-43 13 -52 46 -67 65 -30 17 30 38 7 45 -49 3 -26 12 -69 20 -96 18 -60 18
-66 1 -66 -21 0 -26 -35 -9 -66 7 -16 13 -37 11 -48 -2 -17 -10 -21 -40 -20
-44 1 -43 3 -23 -37 10 -18 26 -32 43 -35 37 -7 55 -24 67 -58 11 -32 35 -47
35 -22 0 26 43 40 79 28 25 -9 34 -8 47 5 13 13 20 14 35 5 22 -14 69 -16 69
-3 0 13 -39 25 -76 22 -18 -1 -40 7 -54 19 -13 11 -37 20 -54 20 -46 1 -70 23
-71 68 -1 20 -6 46 -12 56 -11 19 -7 52 8 72 5 6 6 25 3 43 l-6 31 46 0 c29 0
45 -4 41 -10 -3 -5 -13 -10 -21 -10 -9 0 -14 -7 -12 -17 3 -13 13 -18 41 -18
23 0 37 -5 37 -12 0 -18 31 -16 56 5 24 20 50 79 46 105 -3 14 4 17 37 17 54
0 71 8 71 35 0 28 31 57 49 46 8 -5 11 -16 8 -25 -4 -9 -1 -26 6 -36 13 -22
43 -27 50 -7 3 8 10 5 23 -9 14 -16 40 -25 93 -33 41 -7 81 -17 88 -23 7 -6
40 -10 73 -9 38 1 72 -5 90 -14 23 -12 46 -14 93 -9 48 5 71 3 94 -9 26 -14
33 -14 58 -1 37 19 37 19 20 -22 -19 -45 -19 -48 -1 -41 8 3 16 1 19 -6 5 -17
-18 -37 -42 -37 -12 0 -21 -4 -21 -8 0 -5 -19 -15 -42 -22 -74 -24 -148 -62
-148 -76 0 -8 -10 -14 -24 -14 -13 0 -39 -7 -57 -16 -34 -15 -34 -15 35 -10
38 3 76 12 85 19 19 17 154 64 232 81 46 10 60 10 75 -1 24 -17 94 -5 117 20
17 20 17 19 17 -14 0 -40 -29 -98 -55 -113 -26 -15 -45 -33 -45 -43 0 -12 -82
-94 -125 -125 -21 -16 -46 -28 -56 -28 -10 0 -38 -16 -63 -35 -26 -19 -49 -35
-52 -35 -3 0 -19 -13 -34 -30 -25 -27 -34 -30 -91 -30 -34 0 -100 -7 -147 -16
-77 -14 -85 -14 -102 1 -18 16 -31 17 -169 15 -51 -1 -61 -13 -17 -22 21 -3
44 -33 33 -44 -4 -4 -21 -7 -37 -6 -20 0 -30 -4 -27 -11 5 -16 88 -22 97 -7 5
8 82 13 256 16 143 2 250 8 252 13 2 6 9 8 17 5 7 -3 16 -1 20 5 3 6 17 11 29
11 13 0 41 7 61 16 21 9 50 13 64 11 21 -4 39 8 99 64 41 38 78 69 83 69 5 0
25 14 44 32 19 17 45 36 56 42 12 6 21 16 21 21 -1 6 12 24 27 40 16 17 36 44
44 60 16 32 92 133 153 202 20 24 37 55 39 71 3 39 27 92 42 92 6 0 14 8 17
18 5 14 83 66 121 81 5 2 26 10 45 19 19 8 41 16 48 18 8 1 17 6 20 10 4 4 -1
4 -10 1 -10 -4 -18 -2 -18 3 0 6 -16 4 -36 -5 -51 -21 -123 -20 -131 2 -4 11
0 21 12 27 10 6 30 21 45 33 41 34 139 83 164 83 12 0 38 11 58 25 20 14 40
25 43 25 3 0 15 9 27 20 l22 20 -32 0 c-20 0 -32 -5 -32 -14 0 -13 -79 -31
-89 -20 -10 10 43 53 73 58 17 3 48 15 69 26 58 31 90 21 52 -16 -8 -9 -15
-20 -15 -25 0 -5 7 -9 15 -9 25 0 17 -28 -20 -69 -19 -21 -35 -43 -35 -47 0
-11 -37 -44 -49 -44 -5 0 -14 -7 -21 -15 -11 -13 -8 -15 14 -15 14 0 26 4 26
9 0 16 67 33 87 22 13 -7 23 -5 35 5 9 9 24 17 34 18 10 2 22 16 27 32 12 35
43 71 77 87 13 7 30 23 37 37 7 14 33 47 58 75 25 27 45 58 45 68 0 25 18 56
52 90 15 16 28 37 28 46 0 17 80 80 80 64 0 -5 5 -1 10 7 5 8 10 33 10 56 0
26 9 55 28 85 36 57 77 158 67 167 -3 4 -20 -8 -36 -25 -28 -32 -29 -32 -39
-12 -8 15 -8 29 -1 51 13 35 3 139 -13 151 -6 5 -1 5 12 2 17 -5 22 -2 23 12
3 38 -3 58 -19 70 -48 36 -62 57 -60 87 4 66 -2 106 -16 106 -17 0 -29 27 -15
36 6 3 3 11 -8 19 -10 7 -21 11 -25 9 -9 -6 -9 -5 -14 71 -3 28 -5 62 -7 77
-1 15 -8 33 -14 40 -7 6 -13 19 -13 28 0 18 -35 58 -85 96 -20 15 -43 41 -52
58 -9 17 -35 54 -59 83 -24 28 -44 55 -44 59 0 18 -158 194 -173 194 -24 0
-77 70 -83 109 -4 23 -10 41 -15 41 -13 0 -59 46 -53 53 4 4 16 0 28 -8 11 -8
29 -15 39 -15 29 0 93 -37 111 -64 9 -14 23 -26 30 -26 7 0 37 -10 65 -21 28
-12 54 -19 57 -17 11 12 -10 61 -27 65 -12 3 -19 14 -19 29 0 33 14 30 44 -8
22 -29 30 -32 70 -30 25 1 48 -3 51 -8 10 -16 62 -11 80 7 20 20 15 78 -9 97
-15 11 -41 91 -37 114 1 7 -5 15 -14 18 -27 11 -17 34 14 34 39 0 61 -9 61
-25 0 -16 89 -83 99 -75 17 14 -13 55 -32 43 -5 -3 -7 5 -5 18 5 36 24 33 68
-10 23 -23 46 -41 51 -41 5 0 9 -6 9 -12 0 -7 22 -36 49 -64 27 -28 54 -60 60
-72 6 -12 21 -22 33 -22 17 0 20 4 15 30 -4 18 -2 30 4 30 17 0 53 -22 67 -41
7 -10 33 -27 58 -39 27 -11 48 -28 51 -40 3 -11 9 -20 14 -20 11 0 12 34 2 44
-13 13 -11 37 3 43 9 3 26 1 40 -5 22 -11 35 0 15 12 -11 7 -11 56 1 56 12 0
21 -25 23 -69 1 -20 3 -49 5 -66 l2 -30 8 30 c7 28 8 28 9 -12 2 -68 21 -62
21 6 0 83 12 111 49 111 15 0 34 7 41 15 15 18 47 20 53 3 3 -10 9 -9 22 3 16
16 16 22 2 80 -23 97 -67 243 -77 252 -4 5 -19 5 -31 1 -13 -4 -28 -8 -32 -9
-4 0 -12 -7 -17 -15 -11 -17 -12 -13 -15 77 -2 30 -10 61 -20 75 l-17 23 6
-25 c3 -14 9 -48 12 -76 6 -44 3 -55 -15 -73 -21 -21 -29 -37 -13 -27 14 8 11
-118 -3 -134 -7 -8 -15 -28 -17 -44 -1 -16 -9 -31 -16 -34 -9 -3 -11 9 -6 50
5 43 3 56 -10 67 -11 9 -16 30 -17 65 0 73 -42 153 -93 182 -22 11 -43 32 -48
45 -7 19 -11 21 -18 9 -5 -8 -10 -10 -10 -5 0 19 18 38 29 31 6 -4 9 -11 6
-16 -7 -11 31 -24 45 -15 6 4 5 13 -2 24 -21 34 32 67 60 39 17 -17 16 4 -3
66 -19 64 -19 64 9 59 16 -3 29 -16 37 -36 7 -17 21 -39 30 -48 9 -9 20 -31
24 -47 7 -36 35 -65 35 -38 0 51 -34 158 -61 192 -16 20 -29 46 -29 58 0 43
-15 52 -62 38 -24 -7 -62 -18 -85 -24 -31 -8 -43 -17 -43 -30 0 -19 -16 -23
-39 -9 -8 5 -24 5 -35 1 -12 -5 -30 -12 -41 -16 -23 -8 -105 -15 -105 -8 0 2
18 12 40 21 22 10 40 22 40 28 0 5 16 22 34 37 19 16 52 54 72 85 37 57 101
123 118 123 5 0 17 10 27 21 26 31 10 60 -28 50 -22 -6 -30 -16 -38 -49 -15
-61 -27 -69 -64 -41 -27 20 -34 21 -55 10 -13 -7 -28 -23 -34 -36 -6 -12 -33
-40 -60 -61 -56 -43 -86 -86 -86 -124 -1 -17 -10 -29 -29 -38 -16 -8 -51 -38
-80 -68 -28 -30 -56 -54 -63 -54 -6 0 -14 -7 -18 -15 -3 -8 -10 -15 -16 -15
-15 0 -12 28 3 37 22 13 77 100 77 122 0 14 -6 21 -19 21 -11 0 -37 16 -58 36
-21 20 -48 40 -59 44 -17 7 -24 22 -32 72 -5 35 -14 74 -18 87 -6 19 -4 23 8
19 21 -8 24 79 3 118 -8 16 -15 40 -16 54 0 21 -3 18 -15 -15 -16 -43 -22 -69
-23 -97 -1 -23 -41 -24 -41 -2 0 19 -31 74 -42 74 -4 0 -8 -18 -8 -39 0 -22
-5 -43 -11 -47 -7 -4 -9 -21 -6 -40 4 -21 1 -39 -7 -46 -24 -25 -26 -47 -6
-58 25 -13 30 -13 30 5 0 8 8 15 19 15 10 0 24 6 30 14 13 15 60 30 69 22 12
-12 -60 -64 -98 -71 -3 0 -19 -8 -37 -18 -17 -9 -39 -14 -47 -11 -9 3 -16 1
-16 -5 0 -6 -11 -11 -25 -11 -29 0 -32 12 -9 31 23 19 40 58 48 107 8 51 -12
66 -47 35 -23 -22 -47 -20 -47 2 0 18 -37 38 -56 31 -23 -9 -29 -6 -26 11 4
16 -14 33 -35 33 -7 0 -13 -9 -13 -19 0 -23 -16 -37 -22 -19 -3 8 -20 -2 -43
-25 -36 -35 -40 -37 -52 -21 -15 21 -17 51 -4 56 5 2 13 15 16 31 6 21 4 26
-7 22 -24 -10 -51 30 -45 65 5 21 0 41 -13 65 -11 20 -20 44 -20 54 0 33 -29
91 -43 85 -7 -2 -22 -19 -33 -36 -10 -17 -27 -42 -36 -57 -10 -14 -24 -40 -32
-58 -15 -33 -73 -90 -87 -86 -5 2 -9 -6 -9 -18 0 -28 -49 -109 -66 -109 -8 0
-14 9 -14 20 0 11 -4 20 -9 20 -14 0 -20 -38 -6 -44 16 -6 14 -68 -2 -73 -7
-3 -20 8 -30 24 -9 15 -20 30 -23 33 -4 3 -12 20 -19 38 -8 18 -22 37 -32 42
-22 12 -52 13 -45 1 3 -5 -4 -16 -17 -25 -84 -59 -80 -63 96 -128 24 -9 27
-15 22 -38 -4 -20 -2 -29 10 -34 9 -3 14 -10 10 -16 -8 -13 23 -70 51 -95 26
-22 31 -85 7 -85 -7 0 -13 -9 -13 -20 0 -14 7 -20 23 -20 13 0 36 -13 52 -30
16 -16 26 -30 22 -30 -4 0 0 -16 8 -36 18 -42 19 -70 5 -79 -20 -12 -90 7
-112 31 -13 13 -29 24 -35 24 -7 0 -13 4 -13 8 0 21 -64 44 -120 43 -46 0 -61
4 -76 20 -46 51 -109 62 -171 29 -21 -11 -76 -24 -123 -29 -108 -12 -129 -21
-206 -81 -35 -28 -67 -50 -70 -50 -4 0 -30 -21 -59 -47 -115 -106 -223 -193
-239 -193 -3 0 -3 6 0 14 3 8 -3 19 -15 25 -27 15 -34 14 -27 -4 6 -16 -28
-40 -43 -31 -5 3 -14 -1 -21 -9 -7 -8 -17 -15 -23 -15 -5 0 -28 -18 -49 -40
-22 -22 -45 -40 -52 -40 -8 0 -33 -22 -58 -49 -51 -58 -128 -94 -128 -60 0 12
-7 19 -19 19 -10 0 -24 7 -31 15 -18 22 -27 19 -47 -15 -9 -17 -26 -33 -36
-36 -10 -3 -32 -21 -48 -39 -33 -36 -69 -52 -69 -30 0 7 3 15 8 17 4 2 17 15
28 30 17 22 21 37 17 70 -4 39 -2 46 27 71 85 76 -34 14 -178 -93 -91 -68
-102 -75 -114 -75 -34 0 -1 50 66 103 42 32 25 39 -20 8 -68 -46 -141 -64
-416 -105 -27 -4 -48 -6 -48 -5 0 8 154 76 230 102 115 40 221 80 228 87 3 3
-4 5 -16 5 -12 0 -22 4 -22 8 0 13 -50 7 -90 -10 -19 -8 -53 -18 -75 -22 l-40
-8 23 22 c12 11 22 30 22 40 0 11 6 20 14 20 8 0 27 11 43 24 l28 24 -30 -5
c-17 -2 -37 -7 -45 -9 -8 -3 -17 -5 -19 -4 -2 1 -7 -2 -10 -7 -3 -5 -28 -20
-56 -33 -27 -13 -59 -31 -70 -41 -29 -25 -75 -35 -75 -16 0 8 7 17 15 21 18 7
20 47 3 64 -16 16 -49 15 -72 -3 -25 -19 -46 -19 -46 0 0 8 -4 15 -8 15 -5 0
-7 -13 -4 -29 3 -23 -1 -32 -18 -41 -21 -11 -22 -10 -16 13 6 24 4 25 -21 17
-56 -16 -58 -16 -61 13 -3 23 -8 27 -37 27 -19 0 -37 -4 -40 -10 -10 -16 -28
-11 -21 6 3 8 -1 28 -9 44 -17 33 -20 145 -5 155 18 11 10 26 -12 23 -17 -2
-24 3 -26 20 -3 22 -22 32 -22 12 0 -6 -16 -25 -36 -43 -89 -78 -100 -95 -95
-135 1 -8 -5 -25 -14 -39 -38 -58 -69 -83 -121 -98 -40 -11 -52 -19 -48 -30 8
-20 1 -19 -54 9 -29 14 -58 22 -77 19 -37 -4 -44 1 -73 54 -14 26 -19 44 -12
48 17 10 12 45 -7 46 -10 0 -34 1 -53 2 -26 2 -37 8 -47 27 -7 15 -8 28 -3 35
11 13 -6 35 -27 35 -7 0 -10 7 -7 15 4 9 0 15 -9 15 -10 0 -13 7 -10 19 7 29
-25 35 -48 9 -22 -28 -24 -39 -4 -32 24 10 18 -30 -8 -54 -28 -26 -40 -27 -58
-6 -12 15 -11 19 9 32 12 8 22 18 22 23 0 13 -80 8 -108 -7 -26 -13 -65 -3
-59 15 1 5 -9 18 -22 30 -13 12 -20 21 -14 21 6 0 22 11 37 25 24 22 25 25 7
25 -28 0 -20 28 12 45 31 16 43 5 27 -25 -11 -21 -4 -25 24 -14 19 7 21 31 4
36 -8 3 -2 13 15 28 26 23 26 24 7 37 -23 16 -27 51 -6 59 17 6 9 44 -9 44 -7
0 -20 -11 -29 -25 -9 -14 -24 -25 -33 -25 -18 0 -42 28 -43 50 0 15 -59 50
-84 50 -12 0 -36 40 -36 60 0 6 10 10 23 10 29 1 43 13 96 83 25 33 64 74 87
93 22 19 53 57 68 85 27 52 30 72 6 44 -7 -8 -23 -15 -37 -15 -19 0 -24 4 -21
22 2 18 10 22 41 24 21 0 43 6 49 12 9 9 9 12 0 12 -18 0 -14 32 8 60 21 27
26 50 10 50 -5 0 -10 11 -10 24 0 26 -16 44 -22 26 -2 -7 -22 -1 -49 13 -60
32 -101 41 -117 25z m1870 -1777 c-3 -12 0 -12 12 -1 28 23 19 -32 -11 -69
-18 -22 -28 -46 -29 -73 -1 -22 -8 -45 -16 -50 -15 -10 -88 -4 -97 9 -10 14
-48 32 -54 26 -4 -3 0 -12 8 -20 34 -33 -4 -82 -40 -53 -8 7 -21 10 -29 7 -9
-4 -21 5 -31 19 -11 17 -24 24 -39 22 -26 -3 -72 18 -80 37 -2 7 2 22 10 34
18 25 94 31 94 7 0 -7 9 -16 21 -19 13 -4 18 -10 14 -17 -8 -12 11 -30 31 -30
7 0 14 9 17 20 3 11 1 17 -4 14 -9 -5 -48 33 -49 48 0 4 10 16 21 27 18 17 26
18 43 9 25 -14 88 -19 80 -6 -3 4 6 8 19 8 25 0 49 21 60 53 8 22 54 19 49 -2z
m-916 -316 c28 -54 29 -54 9 -69 -29 -22 -141 -66 -168 -66 -13 0 -32 -6 -42
-14 -16 -12 -17 -16 -6 -30 7 -9 22 -16 32 -16 21 0 44 -35 29 -45 -5 -3 -26
-6 -47 -6 -78 0 -123 -7 -138 -19 -13 -10 -13 -15 -3 -21 7 -4 10 -10 8 -12
-8 -7 -74 -18 -67 -11 4 4 -11 20 -33 36 -22 17 -40 34 -40 39 0 5 -9 9 -19 9
-44 0 10 92 64 110 19 6 41 20 47 29 7 10 23 21 36 25 12 4 27 16 32 27 6 10
20 19 30 19 11 0 37 9 57 20 21 11 45 18 53 15 9 -3 41 4 71 14 29 11 57 20
60 20 4 1 19 -24 35 -54z m2758 9 c16 -6 23 -34 9 -34 -5 0 -28 -23 -52 -51
-39 -46 -42 -52 -28 -66 14 -14 19 -14 49 5 19 12 46 32 62 45 17 15 41 24 67
25 39 2 51 -10 25 -25 -13 -8 -36 -45 -36 -58 0 -4 11 -4 24 -1 27 7 43 -8 43
-39 0 -27 -14 -43 -58 -66 -52 -26 -109 -26 -116 1 -8 31 -82 28 -117 -5 -35
-33 -70 -34 -61 -2 8 27 41 57 63 57 12 0 9 7 -11 28 -20 20 -25 34 -20 52 8
31 45 76 92 112 39 30 42 31 65 22z m866 -88 c0 -7 11 -19 24 -26 15 -7 26
-23 28 -39 2 -21 9 -27 36 -29 24 -3 32 1 32 13 0 24 64 17 68 -7 2 -11 -3
-18 -11 -18 -8 0 -17 -11 -19 -24 -4 -20 10 -38 74 -101 43 -42 86 -88 95
-102 9 -13 19 -20 22 -14 10 16 48 1 66 -25 8 -13 11 -24 5 -24 -5 0 -10 -6
-10 -14 0 -9 -7 -12 -20 -9 -28 7 -27 -28 1 -53 12 -10 28 -34 36 -52 12 -29
12 -34 -7 -54 -11 -12 -20 -17 -20 -11 0 6 -18 30 -39 53 -22 23 -45 49 -53
57 -44 49 -108 81 -108 54 0 -4 -13 -23 -28 -41 -36 -40 -61 -37 -77 10 -10
31 -17 36 -61 46 -73 16 -82 21 -76 51 3 14 13 28 23 30 13 4 19 14 19 34 0
24 4 29 25 29 24 0 24 2 18 47 -8 61 -28 82 -73 80 -34 -2 -35 -1 -38 38 -4
52 -17 65 -61 65 -47 0 -82 10 -75 21 3 5 25 9 49 9 39 0 44 3 53 29 14 39 50
45 80 14 12 -13 22 -30 22 -37z m-1740 -56 c0 -5 -10 -10 -22 -10 -39 0 -4
-22 37 -23 35 -1 36 -3 31 -29 -4 -21 -2 -28 10 -28 14 0 14 -3 4 -15 -7 -8
-9 -15 -6 -15 4 0 0 -7 -8 -16 -9 -8 -16 -20 -16 -25 0 -15 40 -50 50 -44 6 4
10 1 10 -4 0 -11 61 -24 120 -25 42 -1 60 -16 60 -48 0 -32 -18 -48 -52 -48
-28 0 -34 -12 -22 -43 4 -12 15 -14 41 -10 34 6 34 6 31 -28 -2 -19 -8 -33
-15 -32 -16 3 -79 -77 -85 -109 -3 -15 -2 -25 2 -23 5 3 10 -2 14 -10 3 -8 17
-15 31 -15 14 0 25 -2 25 -4 0 -17 -24 -66 -36 -70 -19 -7 -18 -46 1 -46 9 0
12 -6 8 -17 -9 -23 -24 -34 -43 -28 -24 7 -47 -18 -46 -51 0 -37 26 -43 67
-14 36 27 39 26 39 -15 0 -19 -4 -35 -8 -35 -4 0 -6 -15 -4 -33 2 -22 -2 -39
-12 -50 -9 -8 -16 -21 -16 -28 0 -7 27 -45 60 -85 33 -40 60 -78 60 -84 0 -7
9 -23 20 -37 23 -29 26 -67 8 -106 -10 -21 -20 -27 -43 -27 -30 1 -65 20 -65
36 0 5 -9 20 -20 34 -11 14 -20 36 -20 50 0 14 -7 34 -15 44 -8 10 -12 23 -9
27 3 5 1 9 -4 9 -6 0 -10 10 -10 23 0 50 -14 162 -23 179 -5 10 -16 18 -24 18
-8 0 -15 5 -15 10 0 6 -7 10 -16 10 -12 0 -15 -6 -11 -22 4 -12 1 -28 -4 -35
-8 -9 -5 -24 10 -56 26 -54 26 -62 1 -94 -11 -14 -20 -38 -20 -54 0 -32 19
-79 32 -79 4 0 8 -6 8 -13 0 -7 8 -22 18 -33 10 -10 22 -37 27 -59 6 -25 18
-44 33 -51 12 -6 48 -35 78 -64 56 -53 56 -53 32 -66 -19 -10 -24 -10 -26 0
-4 17 -54 8 -65 -11 -5 -7 -12 -11 -16 -9 -4 3 -25 -11 -46 -30 -21 -19 -44
-33 -51 -30 -7 3 -31 10 -53 16 -38 10 -41 13 -41 45 0 36 13 46 27 22 4 -7
24 -19 43 -27 19 -8 38 -18 42 -24 4 -6 10 -7 14 -3 10 10 -16 37 -36 37 -10
0 -20 7 -24 15 -3 8 -11 15 -17 15 -6 0 -22 11 -35 25 -13 14 -27 25 -33 25
-5 0 -11 8 -13 17 -2 10 -12 18 -23 18 -15 0 -19 6 -17 22 2 13 -3 35 -12 50
-8 16 -17 36 -20 46 -3 9 -17 22 -31 27 -20 8 -25 16 -25 45 0 28 -5 38 -22
44 -20 7 -24 5 -28 -18 -5 -24 -6 -25 -17 -7 -7 13 -18 17 -37 14 -22 -4 -26
-2 -26 18 0 14 6 24 14 24 14 0 58 52 69 83 3 9 2 17 -4 17 -6 0 -19 10 -29
22 l-18 23 -15 -38 c-17 -39 -37 -49 -37 -18 0 10 -9 21 -21 24 -11 3 -25 19
-32 36 -6 17 -17 31 -23 31 -13 0 -36 -55 -27 -64 4 -3 2 -6 -3 -6 -16 0 -38
44 -35 69 2 21 -14 66 -29 81 -12 12 -59 118 -65 148 -4 18 -20 47 -37 64 -21
21 -29 38 -25 54 2 13 1 21 -4 19 -4 -3 -11 4 -14 16 -4 11 -15 29 -24 38 -10
10 -25 28 -35 42 -15 22 -18 23 -27 7 -14 -24 -21 -23 -58 13 -35 33 -36 54
-2 53 23 -1 24 1 21 64 -1 39 11 55 25 32 9 -15 37 -12 32 3 -2 6 4 23 14 36
11 13 19 30 19 37 0 8 6 14 14 14 8 0 16 7 20 15 3 8 9 14 13 13 4 0 21 4 36
10 16 7 34 12 41 12 7 0 16 3 20 8 4 4 29 7 54 7 34 0 46 4 44 14 -5 26 9 51
31 51 12 0 43 11 70 24 26 14 79 33 117 42 54 14 70 23 70 36 0 24 27 23 40
-2 14 -26 31 -25 55 5 20 24 55 34 55 15z m-3363 -162 c-5 -13 -37 -45 -69
-72 -32 -27 -64 -60 -71 -74 -7 -13 -31 -35 -54 -49 l-42 -24 2 28 2 28 -77 3
c-62 2 -78 0 -78 -11 0 -9 -13 -17 -31 -19 -25 -4 -33 0 -45 24 -20 38 -34 35
-34 -8 0 -24 -4 -34 -12 -31 -8 2 -13 23 -13 58 l0 54 55 -2 c30 -1 102 -6
160 -11 62 -5 115 -5 130 0 14 5 45 29 70 53 40 39 93 75 112 75 3 0 1 -10 -5
-22z"/>
<path d="M9140 12693 c0 -101 -7 -133 -26 -133 -46 0 -73 -79 -34 -100 18 -9
20 -7 22 17 0 15 1 36 0 46 -2 15 3 18 26 16 4 0 6 -7 4 -16 -3 -13 3 -15 30
-9 48 9 70 40 62 85 -4 20 -11 38 -15 39 -5 2 -9 9 -9 15 0 19 -44 127 -52
127 -5 0 -8 -39 -8 -87z"/>
<path d="M6069 12603 c-4 -46 -8 -73 -21 -141 -12 -57 -12 -74 -3 -82 7 -6 13
-29 13 -51 1 -22 5 -46 10 -52 6 -7 13 -29 17 -49 4 -20 14 -39 22 -42 8 -3
13 -14 12 -23 -3 -27 12 -76 29 -96 13 -15 14 -22 4 -37 -16 -27 -15 -30 8
-30 15 0 20 -7 20 -25 0 -19 5 -25 23 -25 37 0 67 -27 67 -61 0 -25 4 -29 29
-29 18 0 35 -8 43 -19 17 -25 71 -32 76 -10 1 9 -8 20 -23 27 -14 7 -28 19
-31 27 -4 8 -13 15 -22 15 -18 0 -72 57 -72 77 0 13 -12 30 -67 93 -18 20 -48
65 -68 100 -32 57 -34 65 -21 84 12 19 11 24 -4 44 -26 32 -13 73 30 93 34 17
27 36 -9 24 -32 -10 -39 13 -44 143 -1 34 -5 62 -9 62 -5 0 -9 -8 -9 -17z"/>
<path d="M6370 12608 c0 -8 5 -19 11 -25 8 -8 8 -13 -1 -18 -6 -4 -17 1 -24
10 -10 14 -16 15 -34 6 -18 -9 -30 -30 -19 -31 1 -1 20 -3 42 -6 22 -4 45 -10
51 -15 13 -11 56 0 70 17 9 12 15 10 35 -10 23 -22 27 -23 96 -13 96 13 125 1
87 -37 -22 -23 -8 -40 19 -21 12 8 28 15 36 15 30 0 118 50 155 88 l38 40
-148 -1 c-82 -1 -209 2 -281 6 -110 7 -133 6 -133 -5z"/>
<path d="M10465 12589 c-4 -6 -13 -8 -21 -5 -21 8 -37 -32 -32 -79 3 -23 1
-50 -4 -58 -4 -9 -11 -35 -13 -59 -3 -24 -8 -60 -10 -81 -5 -34 -1 -43 37 -82
49 -51 69 -55 110 -20 16 14 27 25 25 25 -6 0 29 44 61 75 20 20 22 32 22 117
0 91 -1 95 -25 106 -26 12 -55 7 -55 -10 0 -5 -4 -7 -9 -4 -5 3 -14 -1 -21 -9
-13 -16 -40 -21 -40 -7 0 4 4 22 9 40 6 18 7 40 4 48 -6 16 -29 19 -38 3z"/>
<path d="M7180 12511 c-65 -20 -230 -116 -280 -162 -14 -13 -49 -42 -78 -64
-29 -21 -52 -43 -52 -47 0 -21 31 -3 93 52 38 33 74 60 81 60 8 0 28 3 46 7
l33 6 -27 -36 c-16 -20 -45 -47 -65 -59 -47 -30 -19 -37 36 -10 21 11 52 23
70 26 17 4 37 14 44 22 6 8 16 14 21 14 11 0 38 25 38 35 0 4 -25 5 -55 3 -30
-1 -55 0 -55 5 0 9 46 28 77 31 23 3 73 49 73 68 0 6 12 21 28 34 28 25 19 29
-28 15z"/>
<path d="M8786 12425 c-4 -10 1 -15 17 -16 20 -1 20 -2 2 -6 -30 -7 -40 -20
-27 -36 6 -7 9 -22 6 -34 -11 -39 100 -87 121 -53 18 29 110 -19 110 -57 0
-12 43 -53 54 -53 4 0 26 -18 49 -40 36 -33 46 -38 61 -28 17 11 17 12 -2 35
-11 12 -29 23 -39 23 -13 0 -18 8 -18 28 0 22 -7 30 -30 39 -16 6 -30 18 -30
27 0 9 -4 16 -10 16 -5 0 -10 7 -10 15 0 8 -11 17 -25 21 -14 3 -32 19 -41 34
-9 15 -33 33 -53 40 -20 7 -38 16 -41 19 -11 14 -60 41 -74 41 -7 0 -16 -7
-20 -15z"/>
<path d="M6182 12372 c-35 -6 -23 -33 23 -49 22 -7 54 -27 71 -44 24 -23 43
-31 75 -34 24 -1 48 -3 53 -4 4 0 5 -21 2 -45 -8 -52 3 -64 38 -41 14 9 34 14
44 11 22 -7 72 12 72 27 0 5 10 18 23 29 l22 20 -22 -5 c-13 -3 -23 -1 -23 3
0 10 -102 60 -122 60 -8 0 -31 9 -53 20 -22 11 -45 20 -53 20 -7 0 -25 6 -40
14 -33 16 -79 24 -110 18z"/>
<path d="M11245 12122 c-10 -46 -24 -86 -31 -89 -19 -7 -12 -54 13 -89 11 -16
23 -37 26 -46 4 -10 11 -18 17 -18 13 0 13 17 -1 26 -7 4 10 17 40 31 l51 25
0 63 c0 71 -17 162 -31 171 -6 3 -7 -4 -4 -19 6 -21 3 -24 -19 -24 -14 0 -26
3 -26 8 0 5 4 9 9 9 21 0 18 28 -3 32 -21 4 -24 -2 -41 -80z"/>
<path d="M7625 11680 c3 -5 0 -7 -9 -4 -8 3 -34 -2 -57 -13 -23 -10 -76 -31
-118 -48 -76 -30 -92 -47 -49 -53 12 -2 27 -11 34 -20 10 -13 18 -11 70 18 96
55 141 88 147 110 3 13 0 20 -10 20 -8 0 -11 -4 -8 -10z"/>
<path d="M11370 11595 c0 -10 30 -116 35 -125 3 -6 15 -10 26 -10 11 0 29 -4
39 -10 29 -15 53 -2 46 26 -5 18 -3 22 9 18 18 -7 75 17 75 31 -1 22 -29 47
-46 41 -11 -4 -24 1 -37 15 -12 13 -27 19 -41 16 -11 -3 -31 -8 -43 -10 -13
-3 -25 -2 -28 4 -6 9 -35 13 -35 4z"/>
<path d="M11568 11373 c-33 -37 -31 -58 7 -76 46 -22 52 -21 60 3 3 11 12 20
20 20 7 0 15 9 18 20 3 11 11 20 19 19 10 0 10 -2 1 -6 -18 -7 -16 -23 2 -23
8 0 15 -7 15 -15 0 -9 12 -26 27 -39 31 -27 26 -55 -12 -57 -45 -3 -69 -14
-59 -30 4 -6 11 -5 20 2 12 10 20 6 43 -21 18 -23 30 -30 35 -22 4 7 17 12 30
12 30 0 46 18 46 54 0 28 1 29 15 10 11 -14 14 -15 14 -4 0 19 -20 45 -36 46
-30 2 -34 5 -28 14 3 6 1 10 -4 10 -6 0 -11 5 -11 12 0 16 -49 58 -67 58 -7 0
-13 4 -13 9 0 14 -43 21 -57 9 -10 -8 -17 -8 -25 0 -17 17 -43 15 -60 -5z"/>
<path d="M12008 11104 c-7 -19 -15 -34 -19 -34 -4 0 -17 14 -29 30 -25 35 -48
38 -80 10 -25 -22 -38 -24 -59 -11 -18 12 -91 -23 -91 -43 0 -8 -6 -17 -12
-20 -7 -3 7 -4 31 -1 24 3 53 13 63 22 17 15 20 15 28 3 6 -8 10 -25 10 -37 0
-17 -4 -21 -17 -16 -10 4 5 -15 32 -43 31 -30 57 -48 67 -45 11 2 21 -5 26
-18 7 -20 9 -20 30 -5 20 14 22 18 9 33 -9 10 -12 32 -9 62 3 42 7 47 40 59
21 7 60 13 87 12 28 -1 56 3 64 7 21 13 -28 41 -99 56 l-60 12 -12 -33z"/>
<path d="M12153 11003 c-24 -8 -43 -19 -43 -25 0 -5 11 -24 25 -42 14 -18 25
-38 25 -44 0 -6 3 -12 8 -14 4 -1 20 -20 35 -40 30 -40 58 -48 83 -24 21 21
17 55 -11 108 -14 26 -25 54 -25 62 0 15 -30 37 -47 35 -4 0 -27 -7 -50 -16z"/>
<path d="M11974 10724 c-13 -19 -14 -28 -6 -36 9 -9 7 -17 -6 -31 -16 -18 -16
-20 13 -44 25 -20 38 -23 80 -20 35 3 59 -1 83 -13 19 -11 28 -20 20 -22 -7
-3 5 -11 27 -18 22 -7 44 -16 50 -21 5 -5 15 -9 23 -9 8 0 25 -9 39 -20 51
-40 58 -20 9 25 -35 33 -54 44 -70 40 -11 -2 -15 -2 -8 1 6 3 9 10 6 15 -4 6
-11 6 -19 -1 -15 -12 -35 -6 -35 11 0 5 9 9 20 9 29 0 25 11 -16 43 -19 16
-39 40 -44 53 -8 21 -30 30 -62 25 -4 0 -12 8 -18 19 -16 30 -65 27 -86 -6z"/>
<path d="M12519 10324 c-14 -7 -69 -16 -122 -20 -83 -6 -97 -10 -97 -24 0 -10
7 -23 15 -30 8 -7 15 -18 15 -26 0 -15 -30 -33 -46 -27 -7 2 -14 -19 -18 -57
-4 -33 -9 -60 -12 -60 -3 0 -15 5 -27 12 -34 19 -118 28 -302 34 -127 3 -173
8 -185 19 -14 13 -16 11 -15 -13 0 -27 -29 -41 -31 -14 -3 24 -4 27 -12 16 -4
-5 -23 -15 -42 -20 -19 -6 -34 -16 -32 -23 1 -7 -2 -10 -7 -7 -5 3 -22 1 -39
-5 -47 -16 -76 3 -68 46 6 28 3 33 -16 38 -12 4 -27 2 -33 -3 -7 -6 -14 -7
-18 -4 -3 3 -22 0 -42 -7 -32 -12 -35 -16 -29 -42 7 -34 -10 -57 -43 -57 -28
0 -117 -42 -148 -69 -40 -36 -117 -83 -150 -92 -19 -6 -43 -23 -55 -39 -11
-15 -33 -31 -48 -35 -16 -3 -39 -22 -56 -46 -15 -22 -38 -45 -50 -50 -25 -12
-67 -70 -70 -96 -1 -14 7 -18 36 -18 21 0 38 3 38 7 0 4 7 5 15 2 11 -5 15 1
15 20 0 14 4 26 8 26 5 0 14 11 20 24 6 13 29 32 51 42 22 11 41 24 41 30 0
13 70 84 83 84 5 0 7 -14 3 -31 -3 -17 -6 -35 -6 -40 0 -5 -11 -9 -25 -9 -16
0 -25 -6 -25 -16 0 -26 -81 -184 -94 -184 -8 0 -11 -16 -9 -45 1 -25 -2 -45
-7 -45 -17 0 -22 22 -10 45 11 21 10 28 -11 54 -28 35 -38 35 -59 -5 -20 -34
-18 -19 -25 -214 -3 -85 -12 -192 -20 -237 -14 -74 -14 -97 -1 -210 9 -71 22
-159 29 -196 23 -106 13 -112 -208 -136 -44 -5 -111 -21 -150 -35 -81 -29
-105 -32 -105 -11 0 8 -4 15 -10 15 -5 0 -10 7 -10 15 0 20 -32 85 -42 85 -22
0 -16 -32 13 -73 27 -39 31 -51 25 -82 -7 -37 -30 -66 -75 -95 -31 -20 -79
-67 -98 -97 -9 -13 -29 -31 -44 -39 -16 -8 -29 -20 -29 -26 0 -7 -22 -33 -49
-58 -26 -26 -51 -59 -55 -73 -8 -34 -25 -36 -19 -3 5 23 3 24 -28 16 -47 -11
-99 -39 -99 -53 0 -17 -71 -77 -91 -77 -29 0 -16 31 26 61 23 17 54 50 70 74
15 25 36 45 45 45 10 0 39 10 66 22 46 20 48 22 26 31 -17 8 -32 7 -55 -2 -18
-8 -57 -14 -88 -15 -44 -1 -63 -7 -92 -29 -20 -15 -40 -27 -45 -27 -15 0 -102
-100 -102 -117 0 -18 -49 -103 -60 -103 -11 0 -23 -72 -13 -79 4 -3 17 -23 28
-43 11 -21 22 -38 26 -38 14 0 29 -55 23 -86 -7 -39 -8 -39 82 -23 35 6 68 17
75 25 6 8 19 14 28 13 10 0 12 -2 3 -6 -6 -2 -10 -8 -7 -13 3 -4 -2 -13 -10
-20 -7 -6 -11 -18 -8 -26 3 -8 -1 -14 -11 -14 -21 0 -10 -27 14 -33 13 -3 16
-11 13 -31 -6 -28 -30 -35 -51 -14 -7 7 -12 9 -12 4 0 -21 33 -36 80 -36 46 0
52 -2 48 -18 -10 -37 21 -60 85 -64 28 -1 40 -28 12 -28 -8 0 -15 -4 -15 -9 0
-5 -3 -16 -6 -24 -3 -10 3 -18 18 -22 26 -9 87 -73 88 -92 0 -7 4 -13 8 -13
22 0 103 -89 113 -123 5 -20 14 -37 20 -37 9 0 78 -59 108 -94 52 -60 95 -95
123 -101 34 -8 58 -26 58 -45 0 -6 12 -15 28 -21 32 -13 103 -50 117 -61 6 -4
23 -19 40 -34 16 -14 35 -29 41 -32 25 -15 67 -127 65 -169 -2 -34 3 -49 23
-74 14 -17 26 -37 26 -45 0 -9 11 -14 30 -14 18 0 33 -7 39 -19 6 -10 23 -24
39 -30 26 -11 30 -18 35 -68 3 -31 3 -61 0 -67 -11 -18 -14 -134 -3 -141 5 -3
10 -19 10 -35 0 -36 -20 -81 -32 -74 -5 3 -16 0 -25 -8 -9 -7 -19 -12 -22 -11
-3 2 -6 -11 -6 -27 0 -18 -5 -30 -12 -30 -7 0 -13 5 -13 10 0 20 -40 9 -56
-15 -9 -14 -24 -25 -33 -25 -22 0 -71 -23 -71 -32 0 -5 -5 -8 -12 -8 -6 0 -21
-9 -32 -19 -15 -13 -30 -17 -53 -14 -34 5 -47 16 -108 88 -54 63 -116 125
-127 125 -13 0 -10 -11 27 -85 34 -67 46 -135 25 -135 -5 0 -10 -9 -10 -19 0
-23 -26 -35 -34 -15 -3 8 -15 14 -26 14 -12 0 -28 7 -37 16 -9 8 -21 13 -28
10 -15 -5 -245 217 -265 257 -8 16 -30 38 -50 49 -19 12 -44 34 -55 51 -11 16
-38 39 -61 51 -22 12 -61 41 -86 64 -45 42 -131 102 -147 102 -4 0 -17 11 -27
25 -10 14 -23 25 -28 25 -5 0 -30 17 -55 38 -25 21 -59 47 -76 57 -89 55 -193
126 -205 140 -7 8 -21 15 -31 15 -11 0 -19 4 -19 8 0 4 -12 13 -27 20 -51 23
-73 37 -73 44 0 5 -7 8 -15 8 -8 0 -34 9 -57 19 -24 11 -82 34 -130 51 -81 29
-89 30 -104 15 -10 -9 -14 -25 -11 -38 3 -12 8 -33 11 -46 7 -29 25 -51 42
-51 7 0 23 -18 34 -40 30 -58 167 -220 186 -220 4 0 13 -8 20 -17 12 -17 13
-17 19 -1 4 10 2 32 -4 49 -17 50 -14 69 15 80 21 7 31 6 44 -6 9 -8 24 -15
32 -15 9 0 21 -7 29 -16 8 -10 24 -14 46 -12 22 3 33 0 33 -8 0 -22 18 -25 50
-9 40 21 56 11 35 -21 -15 -24 -15 -24 15 -24 24 0 30 -4 30 -21 0 -12 8 -23
20 -26 11 -3 20 -14 20 -25 0 -17 5 -19 30 -13 31 7 39 -2 19 -22 -8 -8 -4
-15 12 -27 l23 -16 -22 -45 c-12 -25 -22 -52 -22 -60 0 -8 -7 -36 -16 -62 -9
-26 -18 -61 -20 -78 -2 -16 -6 -39 -9 -51 -5 -22 12 -42 72 -86 105 -77 199
-152 206 -164 4 -8 5 -19 2 -24 -3 -6 2 -10 13 -10 15 0 18 -7 17 -36 0 -26 4
-38 20 -46 11 -6 35 -24 53 -39 18 -16 39 -29 48 -29 8 0 32 -12 53 -26 22
-14 45 -24 53 -22 7 2 30 -14 51 -34 32 -32 37 -44 37 -82 0 -40 -3 -47 -30
-61 -68 -35 -30 -44 220 -51 102 -3 204 -9 227 -15 23 -5 56 -6 73 -2 22 4 35
2 41 -8 12 -18 12 -109 0 -109 -5 0 -12 -17 -16 -38 -3 -20 -19 -52 -35 -71
-20 -23 -30 -44 -30 -67 0 -18 -5 -36 -11 -39 -6 -4 -8 -14 -4 -23 3 -9 3 -13
-1 -9 -9 9 -33 -23 -34 -46 0 -11 -10 -33 -22 -50 -30 -42 -48 -76 -48 -92 0
-7 -7 -15 -15 -19 -8 -3 -15 -13 -15 -23 0 -10 -15 -35 -34 -55 -19 -20 -31
-39 -28 -42 3 -3 0 -6 -7 -6 -6 0 -34 -34 -61 -76 -36 -55 -48 -83 -44 -99 4
-17 -3 -29 -36 -55 -22 -18 -49 -49 -60 -70 -11 -21 -33 -48 -50 -60 -16 -12
-30 -28 -30 -36 0 -7 -9 -19 -20 -26 -11 -7 -20 -16 -20 -21 0 -9 -6 -16 -58
-74 -21 -24 -46 -43 -56 -43 -11 0 -16 -5 -13 -14 5 -13 -25 -46 -42 -46 -4 0
-20 -18 -35 -40 -14 -22 -32 -40 -39 -40 -7 0 -21 -13 -30 -30 -10 -16 -23
-30 -28 -30 -6 0 -7 -9 -4 -20 4 -12 2 -20 -6 -20 -12 0 -64 -41 -110 -86 -14
-14 -45 -34 -67 -44 -23 -11 -42 -23 -42 -28 0 -5 -11 -21 -24 -36 -16 -20
-31 -27 -49 -24 -31 4 -63 -24 -77 -68 -7 -21 -18 -34 -28 -34 -20 0 -92 -66
-92 -84 0 -15 -42 -56 -58 -56 -6 0 -20 -12 -29 -27 -10 -15 -27 -36 -38 -48
-52 -55 -85 -95 -85 -106 0 -6 -17 -32 -38 -58 -21 -25 -44 -59 -52 -74 -8
-16 -31 -44 -52 -63 -22 -19 -36 -39 -33 -43 3 -5 -13 -33 -35 -62 -22 -30
-40 -57 -40 -62 0 -5 -7 -15 -15 -23 -8 -9 -15 -24 -15 -34 0 -12 -8 -20 -22
-22 -17 -2 -22 -9 -20 -23 11 -70 10 -104 -4 -109 -8 -3 -14 -15 -14 -26 0
-11 -7 -20 -15 -20 -10 0 -15 -10 -15 -33 0 -32 -18 -57 -53 -70 -22 -8 -21
-23 3 -44 11 -10 20 -26 20 -36 0 -27 -19 -57 -35 -57 -8 0 -15 -4 -15 -8 0
-14 23 -32 41 -32 22 0 29 -20 29 -86 0 -48 3 -56 25 -66 30 -14 40 -40 24
-66 -7 -12 -9 -27 -4 -38 5 -11 9 -21 10 -24 1 -3 5 -13 9 -22 11 -25 1 -47
-28 -58 -38 -14 -42 -31 -12 -52 14 -11 24 -24 20 -29 -3 -5 14 -9 36 -9 26 0
53 -8 71 -21 l29 -20 0 30 c0 16 -7 37 -16 46 -15 15 -14 15 11 9 16 -4 26 -3
23 2 -3 5 1 50 9 99 8 50 18 119 23 155 4 36 20 108 34 160 14 52 28 110 31
129 3 19 9 39 12 45 13 20 14 49 17 266 2 179 5 221 19 249 9 19 17 40 17 48
0 7 4 13 9 13 5 0 23 22 39 48 43 70 170 193 306 296 65 49 130 103 144 119
15 16 35 38 45 48 9 11 17 24 17 29 0 6 4 10 9 10 9 0 113 82 141 110 8 9 31
27 50 40 19 14 43 31 52 40 9 9 53 35 98 59 94 50 221 143 234 171 5 11 15 20
23 20 7 0 16 13 19 30 4 16 10 27 15 24 5 -3 9 1 9 8 0 8 12 25 28 39 15 14
37 39 50 56 12 17 47 57 77 88 30 31 55 62 55 67 0 6 19 32 43 59 89 100 132
153 130 161 -2 4 3 8 10 8 14 0 58 43 73 72 8 15 88 110 124 148 8 8 37 44 63
80 26 36 55 73 63 83 8 9 14 21 14 26 0 4 9 16 20 26 11 10 20 24 20 32 0 7 6
13 13 13 16 0 40 47 32 61 -4 5 3 9 14 9 14 0 21 6 21 19 0 10 7 24 15 31 8 7
15 17 15 22 0 9 14 28 60 85 6 7 10 26 10 43 0 21 10 42 30 63 16 18 30 37 30
43 0 6 19 19 43 28 23 9 56 27 72 41 44 37 96 72 130 88 62 29 90 40 98 39 4
-1 17 2 27 8 47 25 258 34 302 13 44 -21 103 -40 166 -53 34 -7 62 -17 62 -21
0 -5 15 -9 33 -9 18 0 57 -9 87 -20 30 -11 64 -20 76 -20 12 0 57 -9 100 -20
44 -11 141 -25 216 -31 120 -10 146 -9 214 6 84 19 156 16 267 -10 33 -8 64
-12 68 -9 5 2 16 1 26 -5 10 -5 65 -24 123 -42 97 -31 120 -35 175 -29 37 5
78 -9 105 -35 14 -14 29 -22 33 -19 4 4 11 -4 16 -18 10 -27 31 -40 69 -44 13
-2 30 -8 38 -15 8 -6 22 -13 32 -14 18 -1 31 -4 156 -37 83 -21 310 -29 370
-13 30 8 95 -9 108 -28 3 -6 23 6 47 28 l41 39 0 144 c0 88 -4 151 -11 165 -9
16 -9 22 0 25 7 2 11 40 11 112 l0 109 -42 12 c-37 9 -82 29 -138 61 -8 4 -22
11 -30 14 -8 3 -28 12 -43 20 -16 7 -35 14 -43 14 -8 0 -14 4 -14 8 0 4 -27
28 -59 53 -63 46 -81 69 -55 69 8 0 17 -6 20 -14 3 -8 12 -12 20 -9 8 3 14 -1
14 -10 0 -8 10 -18 23 -22 27 -9 23 -8 70 -25 20 -8 37 -17 37 -21 0 -4 16
-10 36 -14 20 -3 54 -16 76 -27 l41 -22 22 28 c17 21 28 26 44 21 21 -6 21 -4
21 105 l0 112 -41 37 c-23 20 -55 41 -72 47 -17 6 -33 16 -35 24 -7 19 53 5
85 -20 38 -30 63 -26 63 8 0 15 -6 34 -12 41 -10 10 -10 15 -1 18 9 3 12 116
12 446 l1 442 -47 15 c-27 9 -52 25 -58 36 -11 22 -40 54 -49 54 -16 0 -3 -37
17 -45 37 -17 17 -84 -20 -70 -7 2 -13 0 -13 -5 0 -6 -7 -10 -15 -10 -11 0
-12 5 -6 23 13 32 -11 49 -83 57 -75 9 -113 23 -140 54 -28 32 -92 50 -100 29
-10 -24 -7 -33 10 -33 14 0 15 -2 3 -17 -13 -15 -14 -15 -17 0 -5 25 -19 20
-26 -8 -4 -15 0 -36 9 -53 20 -35 91 -133 102 -141 5 -3 20 -22 33 -41 23 -33
98 -129 110 -140 3 -3 17 -21 30 -40 14 -19 35 -46 47 -60 13 -14 23 -28 23
-32 0 -4 17 -27 38 -51 51 -60 96 -118 100 -128 7 -17 -53 -9 -64 9 -16 24
-125 154 -203 241 -36 41 -72 83 -80 93 -7 11 -27 34 -45 51 -17 18 -43 48
-58 67 -14 19 -43 53 -62 74 -20 22 -36 43 -36 46 0 4 -27 36 -61 71 -33 35
-71 74 -82 87 -15 15 -29 21 -44 17 -28 -7 -41 14 -19 30 16 13 13 20 -21 38
-16 10 -4 -71 15 -102 15 -21 14 -25 -2 -37 -24 -17 -49 -6 -85 40 -38 48
-120 96 -188 111 -31 6 -33 5 -33 -19 0 -20 5 -26 21 -26 25 0 139 -77 139
-94 0 -2 -10 -6 -22 -8 -33 -5 -32 -23 1 -23 16 0 27 3 24 8 -12 20 27 3 52
-23 24 -25 26 -30 12 -36 -9 -3 -31 -1 -49 5 -30 9 -100 2 -114 -12 -7 -7
-104 32 -136 55 -16 11 -41 24 -56 28 -23 7 -24 8 -5 9 64 3 62 12 -22 93 -47
47 -49 50 -31 63 13 10 24 11 36 5 25 -13 32 0 15 27 -15 22 -14 24 19 39 21
11 32 22 29 31 -3 8 0 11 8 8 24 -9 76 31 82 62 4 21 -1 34 -19 54 -27 28 -32
59 -9 59 17 0 20 16 5 25 -15 9 -12 22 6 29 12 5 39 -6 73 -31 2 -1 -2 -9 -9
-18 -15 -18 1 -20 18 -3 20 20 14 54 -19 107 -26 42 -31 58 -26 91 4 30 -1 52
-20 91 -33 65 -21 81 35 49 40 -22 42 -22 77 -6 37 18 37 18 87 -13 66 -41 87
-41 58 -1 -21 30 -31 92 -17 106 4 4 15 0 25 -9 10 -10 24 -17 30 -17 7 0 12
-7 12 -15 0 -8 9 -15 20 -15 13 0 32 -17 51 -44 22 -30 41 -46 62 -50 31 -6
75 -31 200 -114 54 -36 80 -46 121 -50 50 -4 53 -3 79 31 35 46 22 56 -20 15
-36 -34 -46 -26 -13 12 14 16 18 30 13 47 -3 16 -1 28 7 33 9 5 9 13 2 26 -8
15 -4 26 26 59 20 22 39 41 43 43 9 4 3 -74 -6 -89 -17 -27 125 -92 150 -68 5
6 4 9 -4 9 -9 0 -12 15 -10 53 2 28 -2 62 -9 73 -13 24 -3 70 23 110 8 13 15
37 15 54 0 27 -3 30 -32 30 -18 0 -40 4 -48 10 -10 6 -24 3 -46 -11 -40 -24
-47 -24 -34 0 14 27 14 28 -17 36 -25 6 -108 45 -173 81 -14 7 -35 14 -47 14
-18 0 -23 6 -23 25 0 27 -33 42 -70 32 -16 -4 -25 5 -44 41 -13 26 -31 61 -40
77 -9 17 -16 40 -16 53 0 14 -6 22 -17 22 -11 0 -24 15 -35 40 -13 31 -14 40
-3 40 7 0 15 7 19 15 4 12 12 11 46 -7 43 -23 50 -42 22 -57 -10 -5 -18 -19
-19 -30 -2 -26 14 -28 22 -3 3 11 17 24 30 30 14 6 25 16 25 22 0 6 5 8 10 5
13 -8 40 13 40 31 0 8 -6 14 -14 14 -8 0 -16 7 -20 15 -4 10 -20 15 -52 15
-40 0 -45 2 -40 17 5 13 1 12 -18 -6 -17 -16 -31 -21 -46 -16 -16 5 -19 10
-10 20 6 8 18 11 27 8 8 -3 18 -2 22 3 3 5 20 14 36 19 22 8 31 18 33 38 3 22
-1 27 -19 27 -12 0 -28 8 -35 18 -10 14 -10 20 3 34 23 26 10 49 -24 42 -20
-4 -39 2 -65 20 -21 14 -45 23 -53 20 -21 -9 -8 -65 22 -90 14 -12 27 -32 29
-45 2 -13 7 -38 10 -56 5 -28 4 -31 -15 -26 -12 3 -21 11 -21 17 0 20 -39 90
-55 99 -8 4 -15 15 -15 23 0 8 -4 22 -9 32 -6 9 -12 29 -15 44 -4 18 -13 28
-28 30 -14 2 -24 12 -28 28 -3 14 -16 30 -28 36 -19 9 -20 12 -6 26 14 14 14
18 0 46 -20 39 -3 53 29 22 14 -13 21 -29 18 -41 -5 -18 3 -22 34 -18 4 0 11
-10 15 -22 7 -17 11 -20 20 -11 19 19 44 14 56 -13 10 -22 34 -32 66 -26 27 5
66 -12 66 -30 0 -10 5 -19 10 -19 6 0 10 5 10 10 0 6 4 10 10 10 5 0 7 -13 4
-29 -7 -32 12 -53 23 -24 3 10 16 27 28 38 11 11 29 31 38 44 16 24 15 26 -16
58 -21 21 -42 33 -59 33 -21 0 -28 5 -28 20 0 17 -7 20 -38 20 -30 0 -41 -5
-50 -22 -8 -17 -11 -19 -11 -6 -1 9 -5 18 -10 20 -14 5 -24 48 -11 48 6 0 20
9 32 20 l22 20 -42 0 c-29 0 -48 6 -62 20 -11 11 -30 20 -43 20 -32 0 -67 27
-67 52 0 11 -8 22 -19 25 -37 10 -81 139 -53 157 16 10 30 -9 78 -104 25 -49
43 -64 91 -74 24 -6 39 -3 57 11 27 19 33 33 15 33 -14 0 -54 31 -125 98 -32
28 -67 52 -78 52 -12 0 -34 7 -50 15 -42 22 -76 20 -76 -5 0 -11 -7 -20 -15
-20 -21 0 -19 -46 4 -78 10 -15 28 -45 39 -67 11 -22 31 -52 43 -66 40 -44 48
-63 34 -76 -10 -9 -20 -9 -43 -1 -26 10 -31 18 -36 58 -4 32 -14 53 -31 68
-14 12 -25 30 -25 40 0 10 -29 46 -64 81 -36 36 -66 75 -69 91 -5 21 -16 30
-49 43 -24 8 -54 14 -68 13 -14 -2 -31 1 -38 7 -8 6 -31 12 -51 13 -25 1 -55
14 -89 38 -29 20 -57 36 -62 36 -6 0 -20 9 -32 20 -32 30 -43 25 -43 -19 0
-22 -3 -43 -7 -46 -11 -11 -69 28 -73 50 -2 11 -7 36 -10 55 -3 19 -8 50 -12
68 -5 29 -3 32 21 32 20 0 27 -6 32 -27 11 -50 13 -53 48 -53 47 0 60 34 24
64 -14 12 -31 37 -38 56 -8 19 -19 40 -25 45 -7 6 -17 29 -24 53 -12 42 -8 67
10 57 20 -13 27 7 12 38 -19 39 -130 157 -139 148 -4 -3 -1 4 5 17 13 24 40
29 58 11 8 -8 20 -8 39 -2 l28 9 -31 32 c-23 25 -39 32 -67 32 -20 0 -36 5
-36 10 0 13 -8 11 -41 -6z m-921 -1984 c29 -11 61 -20 71 -20 10 0 32 -7 47
-15 16 -8 38 -15 49 -15 11 0 43 -12 70 -25 28 -14 55 -25 61 -25 6 0 26 -8
45 -17 21 -11 57 -18 96 -18 56 -1 64 -3 92 -33 17 -18 35 -32 41 -32 13 0 42
-65 38 -87 -2 -10 -14 -19 -28 -21 -14 -2 -29 -9 -35 -16 -6 -7 -41 -15 -82
-18 -81 -6 -110 4 -221 79 -31 22 -86 50 -122 62 -36 13 -67 27 -70 31 -10 14
-115 80 -128 80 -21 0 -72 32 -105 65 l-29 30 48 6 c88 11 108 9 162 -11z
m1452 -1300 c16 -29 44 -41 110 -44 33 -2 70 -10 84 -19 14 -10 32 -17 40 -17
20 0 77 -50 70 -61 -9 -14 -81 -10 -136 7 -42 14 -51 15 -59 3 -8 -12 -11 -11
-22 2 -7 9 -22 19 -35 23 -12 4 -22 12 -22 17 0 5 -5 9 -12 9 -17 0 -78 49
-78 64 0 16 20 36 37 36 7 0 17 -9 23 -20z m-1762 -1289 c6 -17 23 -34 41 -42
17 -8 31 -20 31 -27 0 -7 -5 -10 -12 -6 -7 4 -8 3 -4 -5 4 -6 -5 -22 -23 -37
-17 -14 -30 -30 -28 -36 2 -10 -19 -16 -70 -21 -14 -1 -18 -6 -12 -13 13 -16
-49 -28 -67 -13 -18 15 -7 67 23 102 12 16 23 37 23 48 0 11 4 18 9 14 6 -3
17 10 27 30 20 43 48 46 62 6z"/>
<path d="M5564 9155 c-4 -8 -4 -22 -1 -30 8 -20 -11 -29 -28 -15 -12 10 -15 9
-15 -9 0 -21 -13 -27 -70 -33 -42 -5 -28 -28 30 -53 38 -16 56 -29 58 -44 2
-14 19 -28 49 -41 37 -16 44 -24 40 -40 -4 -16 2 -24 26 -36 18 -9 46 -29 62
-45 17 -15 46 -35 66 -43 19 -8 41 -22 49 -30 17 -21 27 -20 33 3 2 10 26 29
51 42 38 19 44 25 29 30 -10 3 -21 1 -25 -5 -9 -12 -30 12 -22 25 2 4 -2 9 -8
12 -27 10 26 35 64 31 49 -4 90 -26 139 -74 l40 -39 2 -111 1 -111 56 -47 c30
-26 75 -54 100 -62 25 -7 57 -22 72 -32 14 -10 30 -18 35 -18 6 0 18 -9 28
-20 10 -11 28 -20 39 -20 12 0 44 -12 71 -25 28 -14 54 -25 59 -25 5 0 49 27
97 60 113 78 137 78 178 0 29 -55 27 -82 -6 -97 -32 -15 -109 -17 -118 -3 -3
6 -10 10 -16 10 -18 0 -8 -16 31 -44 22 -17 40 -35 40 -42 0 -7 29 -27 65 -45
36 -17 65 -35 65 -39 0 -17 175 -94 191 -84 15 9 49 96 49 123 0 14 -12 49
-25 76 -14 28 -25 57 -25 66 0 9 -7 22 -15 29 -13 11 -13 15 -3 21 8 5 9 9 2
9 -6 0 -37 25 -69 55 -32 30 -63 55 -67 55 -10 0 -86 62 -161 132 -28 26 -66
53 -84 59 -18 6 -33 14 -33 19 0 5 -10 12 -22 16 -13 4 -27 13 -33 20 -10 14
-64 44 -175 100 -30 15 -66 36 -79 46 -13 10 -34 18 -48 18 -13 0 -55 18 -94
40 -39 22 -82 43 -95 46 -13 3 -27 10 -30 15 -3 5 -13 9 -23 9 -9 0 -48 16
-87 35 -38 20 -96 45 -129 57 -33 11 -94 37 -134 56 -77 35 -147 62 -163 62
-5 0 -11 -7 -14 -15z"/>
<path d="M9604 8276 c-21 -20 -43 -36 -50 -36 -6 0 -22 -14 -35 -31 -13 -17
-37 -44 -52 -60 -42 -43 -88 -139 -77 -160 12 -22 81 -20 103 3 22 22 83 137
91 171 4 15 22 44 40 65 63 69 45 110 -20 48z"/>
<path d="M13853 7543 c-15 -6 -17 -57 -3 -83 5 -10 20 -20 32 -23 13 -4 43
-24 66 -47 24 -22 49 -40 56 -40 6 0 17 14 23 31 14 37 -3 71 -48 95 -33 16
-74 20 -49 4 10 -7 11 -10 2 -10 -7 0 -15 8 -18 18 -18 56 -31 68 -61 55z"/>
<path d="M5618 6135 c-34 -46 -20 -121 33 -178 22 -22 39 -46 39 -52 0 -7 17
-28 38 -47 33 -31 47 -36 108 -42 38 -4 77 -10 87 -12 29 -9 21 39 -22 127
-85 173 -139 229 -222 229 -35 -1 -48 -6 -61 -25z"/>
<path d="M5294 5922 c7 -26 18 -58 25 -69 6 -12 11 -32 11 -45 0 -32 42 -86
105 -135 18 -14 24 -23 15 -23 -8 -1 0 -7 18 -15 21 -9 32 -21 32 -34 0 -24
42 -69 77 -82 29 -11 63 -3 63 14 0 7 16 29 35 51 19 21 35 42 35 46 0 11 -36
50 -48 50 -5 0 -23 7 -38 15 -16 8 -36 15 -44 15 -8 0 -37 21 -65 46 -27 25
-67 56 -88 70 -21 14 -57 51 -80 84 -53 74 -70 78 -53 12z"/>
<path d="M3726 5274 c-3 -9 -6 -24 -6 -34 0 -11 -10 -20 -30 -23 -42 -9 -37
-26 18 -67 26 -19 52 -41 58 -49 6 -7 32 -21 58 -30 26 -9 47 -20 47 -24 -1
-4 19 -28 45 -53 45 -45 48 -47 117 -50 69 -3 103 -19 130 -62 4 -7 30 -23 57
-37 27 -14 77 -43 111 -65 34 -22 66 -40 71 -40 14 0 101 -62 116 -82 7 -10
17 -18 21 -18 4 0 40 -30 79 -67 91 -87 185 -173 189 -173 2 0 17 -12 34 -27
17 -16 33 -26 35 -23 2 3 12 -9 22 -25 10 -17 36 -46 57 -65 21 -19 59 -55 84
-80 42 -42 137 -110 153 -110 4 0 52 -36 106 -79 55 -44 118 -91 141 -106 23
-14 44 -32 47 -40 3 -8 26 -24 51 -36 24 -12 47 -28 50 -35 3 -8 10 -14 15
-14 6 0 40 -18 75 -41 35 -22 85 -52 111 -66 26 -14 61 -38 77 -52 17 -15 43
-33 58 -39 15 -7 30 -19 33 -27 4 -8 14 -15 24 -15 10 0 20 -4 22 -9 6 -15
111 -134 179 -202 37 -37 70 -76 74 -88 3 -11 10 -21 14 -21 12 0 34 -57 27
-69 -7 -11 40 -58 67 -67 9 -3 17 -9 17 -13 0 -4 23 -18 50 -31 28 -13 50 -27
50 -31 0 -5 18 -14 40 -20 26 -8 40 -18 40 -29 0 -21 19 -40 41 -40 10 0 19
-5 21 -12 2 -6 12 -9 21 -5 19 7 23 52 7 62 -6 4 -8 10 -5 15 7 11 -65 110
-78 110 -5 0 -27 15 -48 33 -21 17 -55 45 -76 62 -38 29 -83 79 -148 165 -125
164 -160 200 -225 233 -36 17 -70 37 -77 44 -7 6 -26 14 -43 18 -16 4 -30 10
-30 14 0 4 -21 17 -47 30 -91 43 -187 111 -303 212 -25 21 -51 39 -57 39 -7 0
-13 4 -13 8 0 5 -11 14 -24 20 -26 11 -113 89 -206 182 -64 64 -143 130 -156
130 -13 0 -159 103 -218 153 -27 23 -82 74 -122 112 -40 39 -100 93 -133 120
-34 28 -61 54 -61 59 0 4 -19 25 -42 45 -24 20 -61 55 -83 79 -22 24 -64 55
-92 69 -29 13 -53 29 -53 34 0 5 -7 9 -15 9 -8 0 -15 5 -15 10 0 6 -7 10 -15
10 -18 0 -160 73 -199 103 -48 35 -76 63 -76 75 0 12 -67 72 -80 72 -6 0 -18
8 -28 18 -29 27 -89 55 -106 49 -9 -4 -16 -2 -16 3 0 16 -27 11 -34 -6z"/>
<path d="M6717 5217 c-9 -23 3 -85 19 -98 8 -6 14 -18 14 -25 0 -38 75 -124
108 -124 7 0 23 -12 36 -26 21 -25 26 -26 71 -19 40 5 58 15 92 50 24 23 43
51 43 62 0 29 -29 94 -53 121 -29 31 -129 60 -235 68 -76 6 -90 4 -95 -9z"/>
<path d="M6551 4908 c0 -9 4 -20 9 -23 8 -5 8 -11 0 -19 -18 -23 -19 -77 -1
-83 9 -2 23 -9 31 -14 8 -4 36 -18 63 -30 26 -12 47 -25 47 -30 0 -5 5 -9 12
-9 6 0 28 -19 50 -42 35 -38 38 -39 38 -18 0 21 13 21 16 -1 1 -5 2 -13 3 -18
0 -5 36 -12 79 -16 42 -4 80 -12 84 -18 4 -8 11 -7 21 1 7 7 16 10 19 7 3 -3
19 0 36 6 20 7 29 15 25 25 -3 8 -10 14 -15 14 -6 0 -30 14 -55 30 -24 17 -50
30 -58 30 -8 0 -18 6 -22 13 -7 11 -31 26 -53 32 -33 9 -52 20 -60 36 -6 10
-20 19 -30 19 -11 0 -20 4 -20 8 0 5 -20 19 -45 31 -25 12 -45 27 -45 32 0 5
-21 19 -46 32 -44 21 -46 21 -59 4 -13 -18 -13 -18 -18 0 -4 15 -5 16 -6 1z"/>
<path d="M4416 3515 c-11 -8 -30 -15 -43 -15 -34 0 -74 -24 -104 -62 -36 -46
-52 -78 -39 -78 5 0 10 5 10 10 0 6 7 10 15 10 32 0 12 -30 -42 -64 -33 -21
-50 -36 -39 -36 16 0 16 -2 6 -15 -10 -12 -15 -13 -20 -4 -13 20 -50 -1 -57
-32 -3 -16 -12 -29 -19 -29 -10 0 -13 7 -8 26 l7 26 -27 -17 c-14 -10 -26 -20
-26 -24 0 -4 17 -17 38 -28 27 -16 42 -19 55 -12 22 13 44 2 28 -14 -6 -6 -11
-26 -11 -43 0 -18 -4 -36 -10 -39 -15 -10 -12 -35 5 -35 8 0 15 -4 15 -9 0 -5
14 -14 30 -20 17 -5 30 -17 30 -25 0 -16 13 -20 60 -18 17 0 19 -1 7 -5 -29
-8 -18 -48 13 -48 14 0 31 -4 39 -9 9 -6 18 -4 26 7 7 10 21 17 33 17 19 0 21
-8 28 -91 6 -78 9 -89 23 -83 9 3 27 9 41 12 14 3 28 10 32 16 5 8 11 7 20 -2
6 -6 20 -12 30 -12 13 0 18 -8 18 -25 0 -18 5 -25 19 -25 10 0 21 -7 25 -15 3
-9 0 -15 -10 -15 -20 0 -12 -24 9 -28 10 -2 17 3 17 12 0 8 9 18 20 21 29 9
25 25 -10 38 -27 10 -30 15 -24 40 3 16 12 40 19 54 15 29 11 48 -18 81 -11
12 -26 38 -33 58 -11 32 -10 39 12 72 13 21 28 42 34 49 5 7 10 17 10 23 0 5
9 10 20 10 11 0 20 5 20 10 0 6 6 10 13 10 8 0 19 12 26 26 9 21 8 33 -8 70
-11 24 -16 44 -10 44 5 0 9 5 9 11 0 6 -7 8 -16 5 -23 -9 -37 3 -23 20 9 11 6
16 -15 25 -14 7 -23 16 -20 21 3 5 -6 6 -19 3 -20 -6 -27 -2 -32 17 -15 48
-64 52 -95 8 -21 -30 -60 -41 -60 -17 0 6 13 26 30 43 16 18 27 34 24 37 -3 2
-7 17 -10 33 -3 15 -7 31 -10 36 -8 12 -37 9 -58 -7z"/>
<path d="M2107 2843 c-20 -32 -4 -241 18 -250 9 -3 11 -21 8 -63 -5 -57 -5
-60 21 -72 21 -9 26 -16 21 -32 -4 -12 -9 -34 -12 -49 -5 -26 -3 -28 20 -22
14 4 30 4 35 1 15 -9 1 -56 -17 -56 -14 -1 -14 -2 2 -14 10 -8 17 -26 17 -44
0 -17 5 -34 10 -37 6 -3 10 -15 10 -26 0 -12 7 -19 20 -19 15 0 20 -7 20 -25
0 -14 10 -40 22 -58 13 -18 24 -34 25 -36 1 -2 12 -4 25 -5 17 -1 24 -9 29
-34 4 -18 16 -43 28 -56 11 -12 21 -28 21 -34 0 -7 10 -12 23 -12 18 0 25 -9
37 -47 15 -51 70 -112 121 -133 20 -9 29 -19 29 -35 0 -13 7 -25 15 -29 8 -3
15 -12 15 -19 0 -8 11 -27 25 -43 14 -16 26 -38 26 -49 1 -17 2 -17 6 -3 8 31
39 3 56 -49 8 -26 38 -140 66 -253 57 -225 100 -358 139 -435 29 -55 91 -157
102 -165 3 -3 20 -25 37 -50 17 -25 40 -54 52 -64 11 -11 21 -24 21 -30 0 -6
32 -45 70 -88 39 -42 70 -80 70 -85 0 -4 21 -30 46 -58 36 -39 44 -45 38 -25
-4 14 -15 31 -25 38 -25 17 -24 36 1 29 11 -3 20 -1 20 4 0 5 -13 9 -30 9 -16
0 -30 5 -30 11 0 6 6 9 13 6 7 -3 24 1 37 8 l24 13 -37 22 c-33 19 -37 27 -37
61 0 38 -13 52 -23 27 -12 -29 -35 41 -28 84 0 5 -3 8 -8 8 -5 0 -11 22 -13
50 -4 35 -11 55 -28 68 -17 14 -24 33 -29 82 -4 36 -15 80 -25 99 -10 18 -13
30 -8 27 6 -3 13 2 17 13 3 10 15 21 25 24 11 3 20 12 20 21 0 9 5 16 10 16 6
0 8 11 4 28 -7 24 -6 26 9 14 9 -8 21 -11 27 -7 5 3 10 -1 10 -10 0 -9 9 -19
20 -22 11 -3 20 -11 20 -18 0 -7 6 -15 14 -18 8 -3 16 -16 18 -29 2 -18 10
-23 36 -24 17 -1 32 2 32 7 0 5 6 9 13 9 14 0 33 -27 59 -84 17 -36 20 -38 53
-32 33 7 37 5 49 -26 30 -72 84 -88 71 -22 -8 46 15 45 52 -1 15 -19 34 -35
41 -35 6 0 12 -4 12 -9 0 -5 14 -8 31 -7 29 1 34 -4 61 -56 29 -57 57 -80 43
-35 -3 12 -9 33 -12 47 -5 25 -4 24 28 -7 77 -73 77 -73 89 -58 6 8 21 15 33
17 24 4 77 -17 77 -31 0 -4 11 -13 24 -19 18 -8 28 -7 45 4 19 14 26 13 78
-12 31 -14 65 -36 75 -48 14 -16 17 -18 18 -5 0 9 11 22 25 29 27 14 28 14
101 -53 20 -18 34 -25 38 -18 4 6 4 16 0 23 -5 8 -2 9 12 3 10 -4 34 -13 52
-19 17 -6 32 -17 32 -23 0 -7 5 -13 10 -13 6 0 10 4 10 9 0 6 -4 13 -10 16
-14 9 -12 35 3 35 7 0 18 -9 25 -20 7 -12 23 -20 38 -20 21 0 24 4 19 20 -10
31 19 35 56 8 22 -16 33 -19 36 -10 6 15 45 16 59 2 13 -13 164 -23 164 -11 0
4 20 5 45 1 24 -4 42 -3 39 1 -9 15 17 20 56 9 23 -6 44 -18 47 -26 8 -20 21
-17 28 7 5 16 12 19 28 14 12 -4 34 -8 48 -10 14 -1 39 -10 55 -18 16 -8 47
-18 68 -22 20 -4 46 -17 57 -28 23 -25 25 -15 3 18 -15 23 -15 25 -1 25 20 0
123 -27 137 -35 6 -3 10 -1 10 4 0 6 9 11 21 11 16 0 19 4 14 20 -9 29 15 34
71 15 38 -13 49 -13 55 -3 4 7 3 16 -4 20 -19 12 -1 19 28 12 14 -4 29 -12 32
-20 2 -7 11 -10 18 -8 7 3 22 1 34 -5 15 -8 23 -7 35 4 15 16 58 19 91 6 11
-5 29 -2 44 5 32 17 287 19 297 3 4 -8 9 -7 15 2 6 10 9 8 9 -8 0 -33 20 -28
27 7 3 16 11 31 17 31 25 3 42 -3 55 -19 10 -13 12 -13 9 -2 -4 12 3 15 35 15
23 0 42 -6 45 -13 2 -6 -5 -12 -15 -12 -16 0 -18 -7 -15 -55 3 -48 7 -55 25
-55 11 0 36 -5 54 -12 25 -9 33 -17 31 -33 -2 -11 -9 -21 -15 -21 -33 -4 -37
-6 -18 -14 11 -4 30 -6 43 -3 17 4 22 1 22 -16 0 -12 -5 -20 -12 -18 -6 1 -14
-6 -16 -16 -4 -22 -49 -71 -79 -86 -14 -7 -20 -17 -16 -30 3 -14 -6 -26 -33
-45 l-39 -26 338 0 c244 0 344 3 360 12 12 7 33 11 46 9 15 -2 21 1 17 8 -4 6
-14 11 -22 11 -8 0 -14 5 -14 10 0 6 4 10 9 10 11 0 91 80 91 91 0 5 5 9 12 9
6 0 9 3 5 6 -6 6 60 45 140 84 31 15 43 28 48 50 7 33 49 72 69 64 16 -6 33
14 36 41 4 33 1 38 -15 25 -21 -18 -30 -6 -10 14 9 9 26 16 37 16 26 0 47 27
48 60 0 14 9 33 20 43 25 21 25 15 3 -21 -17 -26 -17 -26 0 -13 10 8 27 31 37
52 11 20 25 43 32 51 7 7 24 29 38 49 38 56 88 113 170 198 107 111 130 136
130 147 0 5 14 20 31 33 17 14 44 37 61 52 40 38 132 79 174 77 18 -1 34 -5
34 -9 0 -4 21 -1 46 7 43 13 48 12 60 -4 12 -15 15 -15 24 -2 22 34 10 56 -27
51 -7 -1 -13 7 -13 18 0 15 5 18 22 13 13 -3 19 -1 15 6 -9 14 2 42 17 42 17
0 37 48 22 54 -7 3 -7 5 2 5 6 1 12 9 12 19 0 10 8 27 18 38 15 16 17 31 13
104 -5 73 -9 85 -25 88 -10 2 -23 -3 -28 -12 -6 -11 -16 -15 -29 -11 -14 5
-17 3 -13 -9 8 -20 -10 -21 -26 -1 -13 16 -50 21 -50 7 0 -5 11 -14 25 -20 35
-16 31 -39 -7 -48 -18 -3 -39 -15 -46 -25 -11 -15 -17 -16 -38 -7 -17 8 -21
14 -12 19 7 4 16 5 21 2 11 -7 59 46 52 58 -4 5 -13 5 -25 -1 -23 -12 -87 -13
-94 -2 -4 8 -28 8 -68 3 -5 -1 -8 -6 -8 -11 0 -6 10 -9 23 -8 33 4 36 -16 2
-22 -25 -5 -27 -6 -11 -19 12 -10 13 -17 6 -26 -8 -9 -8 -15 0 -20 6 -3 8 -10
5 -15 -3 -4 4 -10 15 -13 30 -8 24 -34 -10 -40 -16 -4 -30 -12 -30 -19 0 -15
-63 -58 -85 -58 -8 0 -15 7 -15 15 0 19 -24 19 -40 0 -10 -13 -18 -11 -55 15
-24 16 -45 25 -47 19 -2 -7 -17 -7 -46 -1 -23 6 -42 9 -42 7 0 -10 59 -63 78
-69 15 -5 22 -15 22 -33 0 -23 -2 -24 -17 -12 -10 8 -24 21 -30 29 -12 13 -14
13 -26 -2 -9 -11 -18 -13 -29 -7 -10 6 -25 4 -43 -5 -27 -14 -27 -14 -6 -25
14 -8 21 -8 21 -1 0 5 5 10 10 10 16 0 11 -13 -19 -47 -15 -18 -31 -30 -35
-26 -3 3 -6 0 -6 -9 0 -12 -8 -13 -47 -7 -75 12 -79 12 -60 -9 10 -10 17 -23
17 -29 0 -6 6 -14 13 -17 6 -3 -8 -3 -33 1 -25 3 -53 7 -62 8 -10 1 -21 4 -24
8 -15 14 -23 6 -21 -20 2 -25 -2 -28 -38 -33 l-40 -5 40 -25 40 -25 -42 -3
c-24 -2 -43 -7 -43 -11 0 -10 -104 -3 -153 10 -44 12 -59 6 -28 -11 12 -6 21
-15 21 -21 0 -6 -4 -7 -10 -4 -5 3 -10 1 -10 -4 0 -6 -7 -11 -15 -11 -8 0 -15
-4 -15 -8 0 -5 -14 -6 -31 -4 -20 3 -35 -1 -41 -9 -7 -11 -11 -11 -15 -1 -2 6
-12 12 -20 12 -10 0 -14 6 -11 18 6 22 -24 45 -47 36 -13 -5 -11 -11 11 -33
l27 -26 -27 -9 c-32 -12 -34 -39 -3 -62 22 -16 22 -16 -8 -9 -16 3 -33 12 -37
18 -6 9 -8 9 -8 0 0 -15 -61 -18 -75 -4 -6 5 -32 13 -59 17 -39 5 -48 4 -44
-7 3 -8 15 -16 29 -17 44 -6 45 -22 1 -22 -23 0 -43 5 -43 10 -1 6 -2 16 -3
23 -1 8 -15 11 -43 9 -32 -2 -46 2 -61 18 -15 17 -25 20 -38 12 -16 -9 -15
-10 4 -16 19 -6 26 -16 24 -37 0 -3 15 -6 35 -7 41 -3 72 -27 55 -44 -6 -6
-32 -10 -58 -10 -27 1 -51 -4 -55 -10 -4 -6 -15 -8 -25 -3 -19 7 -54 12 -157
19 -48 4 -56 2 -47 -9 13 -16 50 -26 50 -14 0 9 28 5 88 -13 21 -6 32 -16 32
-29 0 -21 -21 -25 -52 -8 -11 6 -23 7 -27 3 -8 -12 -28 -17 -71 -18 -19 -1
-41 -5 -47 -9 -7 -4 -22 -3 -33 3 -14 8 -31 8 -59 0 -42 -11 -61 -36 -33 -42
9 -2 -6 -7 -35 -11 -58 -8 -71 -20 -51 -44 11 -15 11 -16 -5 -10 -10 4 -24 7
-31 7 -7 0 -25 11 -40 25 -15 14 -35 26 -44 27 -42 4 -59 5 -88 7 -23 1 -48
18 -105 71 -40 38 -81 70 -90 70 -9 0 -22 7 -29 15 -7 8 -17 15 -22 15 -6 0
-23 9 -40 21 -38 28 -47 17 -23 -29 22 -42 35 -53 49 -45 5 4 6 1 1 -6 -5 -10
3 -12 34 -10 22 2 46 -2 53 -9 15 -15 3 -28 -14 -15 -12 10 -36 13 -92 14 -33
0 -42 -19 -12 -27 14 -3 26 -10 26 -14 0 -5 18 -11 40 -15 31 -5 40 -11 40
-27 0 -17 -4 -19 -27 -13 -62 15 -103 17 -103 5 0 -21 33 -39 70 -40 37 0 69
-14 58 -26 -4 -4 -21 -1 -37 5 -23 10 -33 10 -49 0 -23 -15 -56 -2 -90 33 -9
10 -23 24 -31 31 -31 27 -121 122 -121 128 0 3 6 14 14 24 15 20 13 21 86 -15
8 -4 21 -19 28 -33 7 -15 19 -27 26 -27 19 0 28 40 10 47 -15 6 -20 33 -5 33
5 0 12 -6 14 -12 4 -10 6 -10 6 -1 1 7 -9 18 -21 24 -13 7 -27 18 -31 25 -5 9
-18 11 -37 7 -17 -3 -36 0 -44 6 -8 7 -35 14 -60 15 -31 2 -54 10 -69 24 -16
15 -26 18 -37 11 -13 -8 -13 -11 1 -19 9 -5 20 -21 23 -35 4 -14 11 -25 16
-25 6 0 10 -7 10 -15 0 -8 -7 -15 -15 -15 -25 0 22 -56 59 -72 17 -7 40 -20
50 -30 11 -10 27 -18 37 -18 9 0 19 -9 22 -20 l5 -21 -33 21 c-18 11 -40 20
-48 20 -9 0 -32 9 -52 20 -20 11 -45 20 -56 20 -16 0 -18 -3 -9 -19 19 -36 13
-44 -27 -38 -20 4 -43 13 -51 20 -11 12 -11 17 4 31 14 15 15 19 3 27 -8 5
-22 9 -31 9 -12 0 -18 8 -18 24 0 19 -4 22 -22 19 -26 -4 -69 16 -75 34 -3 8
7 11 34 7 31 -4 34 -3 16 5 -12 6 -31 19 -43 31 -12 12 -29 20 -38 18 -17 -4
-19 -15 -6 -56 6 -22 6 -22 -52 7 -33 16 -65 39 -72 50 -7 12 -23 21 -36 21
-13 0 -27 7 -30 16 -3 9 -13 14 -20 11 -8 -3 -17 -1 -19 6 -2 7 -8 9 -12 5 -5
-5 -2 -20 5 -35 7 -16 14 -37 14 -47 1 -12 12 -23 31 -29 33 -10 71 -42 86
-69 15 -28 -33 -23 -65 7 -33 30 -32 30 -39 3 -6 -20 -8 -20 -29 -6 -30 20
-37 74 -11 81 14 4 13 5 -5 6 -14 1 -26 10 -32 26 -5 14 -16 25 -25 25 -12 0
-15 14 -15 70 0 39 -3 70 -7 70 -24 -1 -38 -23 -38 -62 0 -30 -4 -43 -15 -46
-9 -1 -16 5 -17 15 -1 26 -11 61 -19 75 -11 17 -25 -40 -17 -70 3 -13 16 -28
29 -32 13 -5 24 -17 24 -26 0 -9 9 -27 20 -41 33 -42 23 -53 -15 -17 -19 18
-35 42 -35 53 0 24 -10 27 -29 9 -11 -10 -14 -10 -18 -1 -11 30 -41 56 -56 50
-20 -8 -23 -37 -4 -37 15 0 32 -30 41 -72 5 -21 3 -28 -9 -28 -8 0 -15 5 -15
10 0 14 -54 12 -68 -2 -9 -9 -12 -9 -12 0 0 7 -7 12 -15 12 -9 0 -15 10 -15
26 0 21 -4 25 -22 22 -19 -2 -22 -8 -20 -35 4 -47 -15 -50 -23 -3 -4 22 -11
42 -16 46 -13 8 -11 41 5 56 17 17 32 128 17 128 -6 0 -17 -12 -25 -27 -14
-26 -15 -26 -16 -6 0 23 -20 44 -20 21 0 -9 -3 -9 -10 2 -9 13 -11 13 -21 0
-8 -11 -12 -12 -16 -2 -2 6 -11 12 -18 12 -8 0 -20 18 -26 40 -16 51 -35 51
-44 0 -9 -53 -38 -55 -55 -5 -6 19 -9 39 -6 44 3 5 0 21 -8 36 -8 16 -12 42
-9 64 5 33 1 43 -27 71 -18 18 -39 48 -46 67 -8 18 -19 33 -24 33 -6 0 -10 -2
-10 -5 0 -17 32 -200 36 -207 3 -4 -5 -26 -16 -49 -16 -30 -25 -38 -33 -30 -6
6 -20 11 -32 11 -27 0 -45 18 -45 45 0 13 -10 27 -25 35 -14 7 -25 17 -25 22
0 4 -6 8 -14 8 -7 0 -16 14 -19 30 -4 18 -13 30 -22 30 -11 0 -14 6 -9 25 5
20 3 24 -10 19 -18 -7 -41 -50 -51 -94 -4 -16 -12 -30 -20 -30 -13 0 -33 39
-38 77 -2 12 -6 25 -9 29 -11 10 -30 -37 -24 -59 3 -12 -5 -37 -19 -62 -24
-41 -25 -41 -72 -35 -43 5 -47 8 -55 39 -10 37 -8 41 19 45 12 2 20 14 24 37
5 31 36 109 59 151 15 26 12 48 -6 48 -8 0 -22 -17 -31 -37 l-16 -38 -13 30
c-7 17 -13 59 -12 95 0 36 -4 81 -9 100 -9 30 -11 32 -18 15 -22 -58 -48 -109
-52 -98 -3 9 -11 7 -25 -7 -12 -11 -24 -17 -28 -15 -14 9 36 185 52 185 16 0
7 26 -14 45 -14 12 -37 19 -59 19 l-36 -1 0 46 c0 55 20 85 48 71 25 -14 25
-14 39 19 13 31 35 47 45 31 4 -6 3 -10 -2 -10 -10 0 -36 -80 -28 -88 3 -3 13
1 21 10 19 18 25 73 13 105 -5 15 -3 25 7 33 12 11 14 7 14 -25 0 -42 23 -45
28 -4 2 13 10 38 18 56 15 33 20 123 6 123 -4 0 -20 -25 -36 -55 -21 -41 -33
-55 -49 -55 -12 0 -32 -13 -46 -30 -13 -17 -31 -30 -40 -30 -9 0 -34 -25 -55
-55 -31 -42 -43 -52 -53 -43 -7 6 -13 17 -13 24 0 8 -5 14 -11 14 -13 0 -39
-61 -40 -97 -1 -17 -3 -21 -6 -10 -5 19 -43 24 -43 5 0 -7 -5 -20 -10 -28 -9
-13 -11 -13 -20 0 -5 8 -10 29 -10 45 -1 28 -1 29 -15 11 -8 -11 -18 -41 -21
-68 -4 -27 -11 -51 -15 -54 -5 -3 -9 -16 -9 -29 0 -12 -6 -25 -14 -28 -14 -6
-13 4 9 86 6 21 4 27 -9 27 -11 0 -16 9 -16 28 0 39 -24 71 -41 55 -7 -7 -18
-13 -23 -13 -6 0 -4 5 4 10 13 9 13 10 0 10 -8 0 -20 -4 -26 -8 -18 -11 -54
-75 -54 -95 0 -41 -20 -2 -21 41 -2 73 -12 107 -31 104 -9 -1 -19 2 -23 8 -8
13 13 80 25 80 5 0 16 23 25 50 12 37 22 50 36 50 13 0 25 11 34 33 14 32 44
63 79 82 23 12 43 42 34 51 -9 8 -87 -37 -112 -65 -11 -12 -27 -21 -36 -21 -9
0 -36 -18 -60 -40 -49 -45 -66 -46 -63 -4 4 47 -2 56 -32 42 -14 -6 -25 -16
-25 -22 0 -5 -6 -1 -14 10 -14 18 -12 58 4 79 5 6 8 38 7 73 0 73 -16 82 -48
27 -12 -19 -27 -35 -34 -35 -18 0 -75 -73 -75 -96 -1 -18 -1 -18 -15 0 -19 25
-19 70 0 86 22 18 8 32 -18 18 -12 -7 -31 -11 -42 -10 -12 2 -31 -8 -45 -23
-13 -14 -29 -25 -36 -25 -14 0 -26 42 -18 64 3 9 1 16 -5 16 -6 0 -11 -8 -11
-17 0 -10 -14 -33 -30 -52 -17 -18 -30 -42 -30 -51 0 -10 -8 -28 -19 -41 -16
-20 -21 -21 -35 -10 -11 10 -13 18 -6 31 27 50 -7 58 -56 14 -37 -33 -39 -33
-42 -12 -2 13 4 28 15 36 13 10 14 16 6 19 -15 5 -18 79 -4 87 5 3 14 27 20
52 10 40 10 49 -4 63 -13 13 -17 14 -24 2 -12 -19 -32 18 -25 46 7 26 -12 40
-20 16 -3 -10 -14 -23 -25 -30 -20 -12 -64 -7 -56 7 9 14 -17 24 -53 22 l-34
-3 7 51 c6 46 5 50 -14 50 -33 0 -26 34 14 64 39 30 37 50 -4 41 -23 -5 -31 0
-53 30 -14 20 -28 33 -31 28z m645 -509 c7 -7 -34 -49 -56 -57 -24 -10 -20
-30 5 -22 14 5 27 0 41 -15 l21 -22 -22 -21 c-22 -22 -22 -22 -37 -2 -9 11
-19 27 -24 35 -8 13 -11 12 -24 -5 -21 -29 -27 -82 -19 -171 6 -73 5 -78 -10
-65 -14 11 -34 80 -29 101 0 3 -8 8 -20 13 -16 6 -18 10 -8 22 6 8 14 38 15
66 2 29 8 55 13 58 5 3 11 12 14 20 2 8 26 27 54 42 48 27 75 34 86 23z"/>
<path d="M11343 2447 c-52 -15 -55 -18 -70 -75 -18 -70 -17 -96 5 -87 9 4 32
11 50 17 18 5 32 16 32 25 0 10 6 14 19 10 31 -8 61 20 61 56 -1 36 -20 67
-41 66 -8 -1 -33 -6 -56 -12z"/>
<path d="M10510 2295 c-13 -16 -12 -46 15 -250 8 -60 20 -148 26 -195 6 -47
15 -95 19 -107 6 -14 5 -34 -1 -53 -8 -21 -8 -39 0 -60 6 -18 6 -30 0 -30 -5
0 -9 -14 -9 -30 0 -27 2 -29 19 -18 17 11 19 22 17 117 -4 159 4 251 22 251
10 0 13 7 8 23 -3 12 -11 67 -17 122 -9 79 -16 104 -32 118 -18 16 -19 21 -8
39 11 18 11 23 -2 33 -8 6 -16 19 -18 29 -5 25 -23 30 -39 11z"/>
<path d="M3952 1943 c-5 -10 -12 -56 -16 -103 -3 -47 -9 -108 -12 -134 -5 -32
-4 -47 3 -43 6 4 18 1 27 -6 14 -10 15 -17 5 -45 -10 -30 -43 -47 -37 -19 4
24 -14 57 -32 57 -15 0 -18 -8 -17 -59 0 -45 3 -58 14 -54 7 3 13 -1 13 -8 0
-8 9 -25 19 -38 l19 -24 7 44 c4 24 15 53 26 64 11 13 21 44 25 80 5 36 16 72
31 93 35 52 29 67 -15 36 -12 -8 -22 -10 -22 -5 0 6 4 11 8 11 5 0 14 12 21
27 11 24 10 28 -15 48 -19 15 -25 27 -20 42 7 22 -1 53 -15 53 -4 0 -12 -8
-17 -17z"/>
<path d="M9594 1569 c-15 -25 13 -401 37 -491 20 -78 59 -19 46 69 -3 21 -13
83 -21 138 -9 55 -15 140 -15 189 1 65 -2 91 -12 97 -19 12 -26 11 -35 -2z"/>
<path d="M12880 1224 c0 -5 20 -27 44 -49 25 -22 74 -68 111 -103 37 -34 71
-59 76 -56 5 3 8 0 7 -7 -2 -7 10 -19 25 -27 16 -7 51 -38 79 -67 28 -30 54
-52 58 -50 7 4 38 -22 66 -57 6 -7 35 -35 64 -63 30 -27 80 -83 112 -124 32
-40 76 -90 96 -110 21 -20 44 -47 51 -61 31 -63 43 -80 57 -80 8 0 12 -5 9
-10 -4 -6 -2 -16 3 -23 22 -27 68 -123 64 -135 -2 -6 3 -15 12 -18 9 -3 16
-12 16 -19 0 -17 130 -145 147 -145 7 0 13 -4 13 -10 0 -6 75 -10 205 -10
l205 0 0 265 c0 222 -2 265 -14 265 -16 0 -119 53 -186 96 -25 16 -54 35 -65
42 -42 26 -82 41 -270 104 -217 73 -280 99 -342 140 -23 15 -44 28 -47 28 -3
0 -28 14 -55 30 -42 26 -144 70 -206 87 -11 4 -29 12 -40 19 -11 7 -43 22 -72
33 -28 11 -84 41 -124 66 -80 52 -99 61 -99 49z"/>
<path d="M5682 1190 c3 -8 -1 -20 -9 -25 -15 -12 -9 -21 55 -71 18 -14 36 -34
41 -43 8 -14 3 -17 -35 -19 -25 -1 -43 2 -40 6 3 4 -12 9 -32 10 l-37 3 35
-18 c28 -15 35 -24 35 -48 0 -24 4 -29 18 -27 10 2 26 -3 35 -10 13 -11 15
-11 9 5 -8 22 -2 22 23 -3 11 -11 29 -20 40 -20 11 0 20 -4 20 -10 0 -5 5 -10
11 -10 8 0 7 5 -2 16 -11 13 -8 19 21 42 l35 27 -40 5 c-37 5 -40 8 -40 35 0
33 -30 71 -60 77 -10 2 -35 23 -54 48 -19 25 -32 38 -29 30z"/>
</g>
</svg>
