<?xml version="1.0" standalone="no"?>
<!DOCTYPE svg PUBLIC "-//W3C//DTD SVG 20010904//EN"
 "http://www.w3.org/TR/2001/REC-SVG-20010904/DTD/svg10.dtd">
<svg version="1.0" xmlns="http://www.w3.org/2000/svg"
 width="512.000000pt" height="512.000000pt" viewBox="0 0 512.000000 512.000000"
 preserveAspectRatio="xMidYMid meet">

<g transform="translate(0.000000,512.000000) scale(0.100000,-0.100000)"
fill="#000000" stroke="none">
<path d="M3600 5105 c-475 -77 -854 -423 -963 -880 -14 -54 -36 -217 -37 -267
0 -13 110 -9 195 7 140 25 219 52 340 113 359 182 604 546 633 943 l8 99 -51
-1 c-27 -1 -84 -7 -125 -14z"/>
<path d="M1720 3829 c-476 -59 -894 -370 -1117 -829 -125 -259 -172 -475 -172
-795 -1 -1003 403 -1897 969 -2141 85 -37 204 -64 282 -64 157 0 410 56 613
135 212 83 221 86 311 86 77 0 93 -4 221 -54 300 -119 470 -159 668 -161 158
-1 220 14 361 84 359 180 655 633 809 1238 14 57 23 107 21 111 -3 4 -34 11
-68 14 -140 14 -334 81 -461 161 -221 138 -374 338 -439 573 -17 63 -22 105
-21 218 0 123 3 151 27 230 87 286 310 521 605 637 l79 31 -53 61 c-204 231
-488 394 -782 451 -259 50 -488 17 -759 -110 -145 -68 -263 -76 -361 -26 -82
41 -248 103 -342 127 -110 28 -274 38 -391 23z"/>
</g>
</svg>
